<svg id="Capa_1" data-name="Capa 1" xmlns="http://www.w3.org/2000/svg" viewBox="0 0 220 143"><defs><style>.cls-1{fill:#58708c;}.cls-2{fill:#6eb76f;}.cls-3{font-size:6px;}.cls-3,.cls-36{fill:#fff;}.cls-3,.cls-36,.cls-37{font-family:OpenSans-Bold, Open Sans;font-weight:700;}.cls-4{font-family:OpenSans;font-weight:400;}.cls-5{letter-spacing:-0.03em;}.cls-6{letter-spacing:0em;}.cls-7{letter-spacing:-0.01em;}.cls-8{letter-spacing:0em;}.cls-9{letter-spacing:0.01em;}.cls-10{letter-spacing:0em;}.cls-11{letter-spacing:0em;}.cls-12{letter-spacing:0em;}.cls-13{letter-spacing:0.01em;}.cls-14{letter-spacing:0em;}.cls-15{letter-spacing:-0.01em;}.cls-16{letter-spacing:0em;}.cls-17{letter-spacing:-0.01em;}.cls-18{letter-spacing:-0.01em;}.cls-19{letter-spacing:-0.02em;}.cls-20{letter-spacing:-0.01em;}.cls-21{letter-spacing:-0.01em;}.cls-22{letter-spacing:-0.01em;}.cls-23{letter-spacing:0.02em;}.cls-24{letter-spacing:-0.01em;}.cls-25{letter-spacing:0.01em;}.cls-26{letter-spacing:0em;}.cls-27{letter-spacing:0.01em;}.cls-28{letter-spacing:0.01em;}.cls-29{letter-spacing:0.02em;}.cls-30{letter-spacing:-0.01em;}.cls-31{letter-spacing:-0.02em;}.cls-32{letter-spacing:0.01em;}.cls-33{letter-spacing:-0.01em;}.cls-34{fill:#ea7e6c;}.cls-35{fill:#465973;}.cls-36{font-size:7.66px;}.cls-37{font-size:12px;}</style></defs><rect class="cls-1" x="2" y="19" width="100" height="105"/><rect class="cls-2" x="118" y="19" width="100" height="105"/><text class="cls-3" transform="translate(9.71 32.63)">Invenciones<tspan class="cls-4"><tspan x="0" y="7.2">-</tspan><tspan class="cls-5" x="1.84" y="7.2">P</tspan><tspan class="cls-6" x="4.88" y="7.2">a</tspan><tspan class="cls-7" x="7.75" y="7.2">t</tspan><tspan x="9.7" y="7.2">e</tspan><tspan class="cls-8" x="12.7" y="7.2">n</tspan><tspan class="cls-7" x="16.01" y="7.2">t</tspan><tspan x="17.96" y="7.2">es</tspan><tspan x="0" y="14.4">-</tspan><tspan class="cls-9" x="1.84" y="14.4">M</tspan><tspan x="6.7" y="14.4">odelos de </tspan><tspan class="cls-10" x="32.41" y="14.4">U</tspan><tspan class="cls-11" x="36.31" y="14.4">tilidad</tspan><tspan x="0" y="21.6">-Diseño indust</tspan><tspan class="cls-12" x="36.31" y="21.6">r</tspan><tspan x="38.29" y="21.6">ial</tspan><tspan class="cls-13" x="0" y="28.8">-</tspan><tspan class="cls-14" x="1.93" y="28.8">C</tspan><tspan x="5.39" y="28.8">i</tspan><tspan class="cls-15" x="6.79" y="28.8">r</tspan><tspan class="cls-16" x="8.69" y="28.8">cui</tspan><tspan class="cls-7" x="16.09" y="28.8">t</tspan><tspan x="18.04" y="28.8">o i</tspan><tspan class="cls-8" x="24.01" y="28.8">n</tspan><tspan class="cls-7" x="27.32" y="28.8">t</tspan><tspan x="29.27" y="28.8">e</tspan><tspan class="cls-17" x="32.27" y="28.8">gr</tspan><tspan x="37.52" y="28.8">ado</tspan><tspan x="0" y="36">-</tspan><tspan class="cls-9" x="1.84" y="36">S</tspan><tspan x="4.84" y="36">ec</tspan><tspan class="cls-15" x="10.53" y="36">r</tspan><tspan x="12.43" y="36">e</tspan><tspan class="cls-7" x="15.44" y="36">t</tspan><tspan x="17.39" y="36">o indust</tspan><tspan class="cls-10" x="37.74" y="36">r</tspan><tspan x="39.73" y="36">ial</tspan></tspan><tspan x="0" y="50.4">Signos Distintivos</tspan><tspan class="cls-4"><tspan x="0" y="57.6">-</tspan><tspan class="cls-9" x="1.84" y="57.6">M</tspan><tspan x="6.7" y="57.6">a</tspan><tspan class="cls-18" x="9.59" y="57.6">r</tspan><tspan x="11.5" y="57.6">ca</tspan><tspan x="0" y="64.8">-Nomb</tspan><tspan class="cls-15" x="17.5" y="64.8">r</tspan><tspan class="cls-16" x="19.4" y="64.8">e </tspan><tspan class="cls-7" x="23.68" y="64.8">c</tspan><tspan x="26.33" y="64.8">ome</tspan><tspan class="cls-18" x="37.64" y="64.8">r</tspan><tspan x="39.54" y="64.8">cial</tspan><tspan class="cls-6" x="0" y="72">-</tspan><tspan class="cls-19" x="1.82" y="72">A</tspan><tspan x="5.36" y="72">viso </tspan><tspan class="cls-7" x="16.6" y="72">c</tspan><tspan x="19.25" y="72">ome</tspan><tspan class="cls-18" x="30.55" y="72">r</tspan><tspan x="32.45" y="72">cial</tspan><tspan x="0" y="79.2">-</tspan><tspan class="cls-10" x="1.84" y="79.2">D</tspan><tspan x="5.86" y="79.2">enominación de O</tspan><tspan class="cls-10" x="51.91" y="79.2">r</tspan><tspan class="cls-11" x="53.89" y="79.2">igen</tspan></tspan></text><text class="cls-3" transform="translate(125.71 32.63)">Obras<tspan class="cls-4"><tspan x="0" y="7.2">-Li</tspan><tspan class="cls-20" x="6.08" y="7.2">t</tspan><tspan class="cls-16" x="8.03" y="7.2">e</tspan><tspan class="cls-21" x="11.03" y="7.2">r</tspan><tspan x="12.97" y="7.2">a</tspan><tspan class="cls-10" x="15.86" y="7.2">r</tspan><tspan x="17.84" y="7.2">ia</tspan><tspan class="cls-22" x="22.14" y="7.2">s</tspan><tspan x="24.45" y="7.2">, a</tspan><tspan class="cls-23" x="29.86" y="7.2">r</tspan><tspan x="31.96" y="7.2">tística</tspan><tspan class="cls-22" x="46.7" y="7.2">s</tspan><tspan x="49.01" y="7.2">, musicale</tspan><tspan class="cls-22" x="73.61" y="7.2">s</tspan><tspan x="75.92" y="7.2">,</tspan><tspan class="cls-24" x="0" y="14.4">f</tspan><tspan x="1.67" y="14.4">o</tspan><tspan class="cls-7" x="4.97" y="14.4">t</tspan><tspan x="6.92" y="14.4">o</tspan><tspan class="cls-17" x="10.21" y="14.4">gr</tspan><tspan x="15.46" y="14.4">áfica</tspan><tspan class="cls-22" x="27.07" y="14.4">s</tspan><tspan x="29.38" y="14.4">, a</tspan><tspan class="cls-15" x="34.79" y="14.4">r</tspan><tspan x="36.69" y="14.4">qui</tspan><tspan class="cls-7" x="44.78" y="14.4">t</tspan><tspan x="46.73" y="14.4">e</tspan><tspan class="cls-25" x="49.73" y="14.4">c</tspan><tspan class="cls-7" x="52.5" y="14.4">t</tspan><tspan x="54.45" y="14.4">ónica</tspan><tspan class="cls-22" x="68.06" y="14.4">s</tspan><tspan x="70.37" y="14.4">,</tspan><tspan x="0" y="21.6">d</tspan><tspan class="cls-26" x="3.38" y="21.6">r</tspan><tspan x="5.32" y="21.6">am</tspan><tspan class="cls-6" x="13.21" y="21.6">á</tspan><tspan x="16.08" y="21.6">ticas</tspan><tspan x="0" y="28.8">-</tspan><tspan class="cls-9" x="1.84" y="28.8">S</tspan><tspan x="4.84" y="28.8">o</tspan><tspan class="cls-27" x="8.13" y="28.8">f</tspan><tspan class="cls-28" x="9.95" y="28.8">t</tspan><tspan class="cls-6" x="11.99" y="28.8">w</tspan><tspan x="16.38" y="28.8">a</tspan><tspan class="cls-18" x="19.27" y="28.8">r</tspan><tspan x="21.17" y="28.8">e</tspan></tspan><tspan x="0" y="43.2">Derechos Conexos</tspan><tspan class="cls-4"><tspan class="cls-6" x="0" y="50.4">-A</tspan><tspan class="cls-29" x="5.47" y="50.4">r</tspan><tspan class="cls-11" x="7.58" y="50.4">tista</tspan><tspan class="cls-30" x="18.22" y="50.4">s</tspan><tspan class="cls-11" x="20.53" y="50.4">, i</tspan><tspan class="cls-6" x="24.45" y="50.4">n</tspan><tspan class="cls-20" x="27.76" y="50.4">t</tspan><tspan class="cls-16" x="29.71" y="50.4">é</tspan><tspan class="cls-12" x="32.71" y="50.4">r</tspan><tspan x="34.7" y="50.4">p</tspan><tspan class="cls-18" x="38.11" y="50.4">r</tspan><tspan x="40.01" y="50.4">e</tspan><tspan class="cls-7" x="43.02" y="50.4">t</tspan><tspan x="44.97" y="50.4">es y ejecuta</tspan><tspan class="cls-6" x="74.06" y="50.4">n</tspan><tspan class="cls-20" x="77.37" y="50.4">t</tspan><tspan class="cls-16" x="79.32" y="50.4">es</tspan><tspan x="0" y="57.6">-</tspan><tspan class="cls-8" x="1.84" y="57.6">E</tspan><tspan class="cls-16" x="4.77" y="57.6">di</tspan><tspan class="cls-7" x="9.56" y="57.6">t</tspan><tspan x="11.51" y="57.6">o</tspan><tspan class="cls-18" x="14.8" y="57.6">r</tspan><tspan x="16.7" y="57.6">es de lib</tspan><tspan class="cls-18" x="37.25" y="57.6">r</tspan><tspan x="39.16" y="57.6">os</tspan><tspan x="0" y="64.8">-</tspan><tspan class="cls-31" x="1.84" y="64.8">P</tspan><tspan class="cls-18" x="4.94" y="64.8">r</tspan><tspan x="6.84" y="64.8">odu</tspan><tspan class="cls-32" x="16.82" y="64.8">c</tspan><tspan class="cls-7" x="19.59" y="64.8">t</tspan><tspan x="21.54" y="64.8">o</tspan><tspan class="cls-15" x="24.83" y="64.8">r</tspan><tspan class="cls-16" x="26.74" y="64.8">es de </tspan><tspan class="cls-24" x="41.05" y="64.8">f</tspan><tspan x="42.73" y="64.8">ono</tspan><tspan class="cls-7" x="52.64" y="64.8">g</tspan><tspan class="cls-26" x="55.96" y="64.8">r</tspan><tspan x="57.89" y="64.8">amas y</tspan><tspan x="0" y="72">video</tspan><tspan class="cls-17" x="13.97" y="72">gr</tspan><tspan class="cls-16" x="19.22" y="72">amas</tspan><tspan class="cls-13" x="0" y="79.2">-</tspan><tspan x="1.93" y="79.2">O</tspan><tspan class="cls-33" x="6.06" y="79.2">r</tspan><tspan class="cls-16" x="7.97" y="79.2">ganismos de </tspan><tspan class="cls-21" x="40.94" y="79.2">r</tspan><tspan class="cls-16" x="42.87" y="79.2">adiodifusión</tspan><tspan x="0" y="86.4">-</tspan><tspan class="cls-9" x="1.84" y="86.4">S</tspan><tspan x="4.84" y="86.4">eñales de s</tspan><tspan class="cls-8" x="32.17" y="86.4">a</tspan><tspan class="cls-7" x="35.04" y="86.4">t</tspan><tspan x="36.99" y="86.4">éli</tspan><tspan class="cls-7" x="42.82" y="86.4">t</tspan><tspan x="44.77" y="86.4">e</tspan></tspan></text><rect class="cls-34" x="3" y="3" width="98" height="12"/><rect class="cls-34" x="119" y="3" width="98" height="12"/><rect class="cls-35" x="3" y="128" width="98" height="12"/><rect class="cls-35" x="119" y="128" width="98" height="12"/><text class="cls-36" transform="translate(10.81 11.57)">Propiedad Industrial </text><text class="cls-36" transform="translate(43.25 136.57)">IMPI</text><text class="cls-36" transform="translate(147.25 136.57)">INDAUTOR</text><text class="cls-36" transform="translate(130.81 11.57)">Derechos de Autor</text><text class="cls-37" transform="translate(-16 41.93)"><tspan xml:space="preserve">   </tspan></text></svg>