<?xml version="1.0" encoding="utf-8"?>
<!-- Generator: Adobe Illustrator 22.1.0, SVG Export Plug-In . SVG Version: 6.00 Build 0)  -->
<svg version="1.1" id="Capa_1" xmlns="http://www.w3.org/2000/svg" xmlns:xlink="http://www.w3.org/1999/xlink" x="0px" y="0px"
	 viewBox="0 0 269 148" style="enable-background:new 0 0 269 148;" xml:space="preserve">
<style type="text/css">
	.st0{fill:#CCCCCC;}
	.st1{fill:#999999;}
	.st2{fill:#9CCDE4;}
	.st3{fill:#EA7E6C;}
	.st4{fill:#58708C;}
	.st5{fill:#6EB76F;}
	.st6{fill:#E6E6E6;}
	.st7{fill:#DDDBDB;}
	.st8{enable-background:new    ;}
	.st9{fill:#FFFFFF;}
	.st10{font-family:'OpenSans-Bold';}
	.st11{font-size:8.3px;}
	.st12{fill:#5D5D5B;}
	.st13{font-family:'OpenSans-BoldItalic';}
	.st14{font-size:7px;}
</style>
<title>u1_p1_organizador_grafico</title>
<g>
	<g id="Capa_1_1_">
		<circle class="st0" cx="59.8" cy="76.2" r="56.4"/>
		<circle class="st1" cx="59.8" cy="76.2" r="37.3"/>
		<path class="st2" d="M87.4,112.2c-7.7,5.8-17,9.1-26.7,9.3c-1.2,0-2.1,1-2.1,2.2c0,1.2,1,2.1,2.2,2.1c10.9-0.3,21.5-4.1,30.1-10.9
			C89.8,114.1,88.6,113.2,87.4,112.2z"/>
		<path class="st3" d="M105.1,78.4c-0.5,12.5-6.2,24.2-15.8,32.2c1.2,0.9,2.4,1.8,3.6,2.7c2-1.8,3.8-3.7,5.5-5.7
			c6.7-8.3,10.5-18.5,11-29.2H105.1z"/>
		<path class="st4" d="M91.9,44c0.9-1.1,1.9-2.2,2.9-3.2c-9.1-8.9-21.2-14-33.9-14.3c-1.2,0-2.2,0.9-2.2,2.1c0,0,0,0,0,0v0
			c0,1.2,0.9,2.1,2.1,2.1C72.4,31.1,83.6,35.8,91.9,44z"/>
		<path class="st5" d="M102.6,50.8c-1.7-2.9-3.8-5.6-6.1-8.1c-1,1-2,2.1-2.9,3.2c0.3,0.4,0.7,0.7,1,1.1c6.8,8.1,10.5,18.3,10.6,28.8
			h4.3C109.5,67,107.1,58.3,102.6,50.8z"/>
		<path class="st6" d="M128.6,3.4h133.2c2.5,0,4.5,2,4.5,4.5c0,0,0,0,0,0V29c0,2.5-2,4.5-4.5,4.5l0,0H128.6c-3.3,0-6-2.7-6-6V9.4
			C122.6,6,125.3,3.4,128.6,3.4L128.6,3.4z"/>
		<path class="st4" d="M128.6,3.4h28l0,0v30.1l0,0h-28c-3.3,0-6-2.7-6-6V9.4C122.6,6,125.3,3.4,128.6,3.4L128.6,3.4z"/>
		<circle class="st2" cx="90.6" cy="112.2" r="4.5"/>
		<path class="st3" d="M102.5,78.2c0,2.5,2,4.5,4.5,4.5s4.5-2,4.5-4.5s-2-4.5-4.5-4.5C104.5,73.8,102.5,75.8,102.5,78.2z"/>
		<circle class="st5" cx="93.6" cy="43.8" r="4.5"/>
		<polygon class="st7" points="156.6,3.4 156.6,33.5 175.2,33.5 		"/>
		<path class="st6" d="M128.6,39.6h133.2c2.5,0,4.5,2,4.5,4.5c0,0,0,0,0,0v21.1c0,2.5-2,4.5-4.5,4.5l0,0H128.6c-3.3,0-6-2.7-6-6
			V45.5C122.6,42.3,125.3,39.6,128.6,39.6z"/>
		<path class="st5" d="M128.6,39.6h28l0,0v30.1l0,0h-28c-3.3,0-6-2.7-6-6V45.5C122.6,42.3,125.3,39.6,128.6,39.6z"/>
		<polygon class="st7" points="156.6,39.6 156.6,69.7 175.2,69.7 		"/>
		<path class="st6" d="M128.6,75.8h133.2c2.5,0,4.5,2,4.5,4.5c0,0,0,0,0,0v21.1c0,2.5-2,4.5-4.5,4.5l0,0H128.6c-3.3,0-6-2.7-6-6
			V81.8C122.6,78.5,125.3,75.8,128.6,75.8z"/>
		<path class="st3" d="M128.6,75.8h28l0,0v30.1l0,0h-28c-3.3,0-6-2.7-6-6V81.8C122.6,78.5,125.3,75.8,128.6,75.8z"/>
		<polygon class="st7" points="156.6,75.8 156.6,105.8 175.2,105.8 		"/>
		<path class="st6" d="M128.6,112h133.2c2.5,0,4.5,2,4.5,4.5c0,0,0,0,0,0v21.1c0,2.5-2,4.5-4.5,4.5l0,0H128.6c-3.3,0-6-2.7-6-6V118
			C122.6,114.7,125.3,112,128.6,112z"/>
		<path class="st2" d="M128.6,112h28l0,0v30.1l0,0h-28c-3.3,0-6-2.7-6-6V118C122.6,114.7,125.3,112,128.6,112z"/>
		<polygon class="st7" points="156.6,112 156.6,142.1 175.2,142.1 		"/>
		<text transform="matrix(1 0 0 1 41.9807 74.18)" class="st8"><tspan x="0" y="0" class="st9 st10 st11">Modelo </tspan><tspan x="-7.4" y="10" class="st9 st10 st11">de proceso</tspan></text>
		<text transform="matrix(1 0 0 1 162.17 21.8774)" class="st12 st13 st14">Punto de control por fase</text>
		<text transform="matrix(1 0 0 1 162.17 57.651)" class="st12 st13 st14">Tipos de modelo de procesos</text>
		<text transform="matrix(1 0 0 1 162.17 93.4146)" class="st12 st13 st14">Fases por iteración</text>
		<text transform="matrix(1 0 0 1 162.17 130.0845)" class="st12 st13 st14">Entregables por fase</text>
	</g>
</g>
</svg>
