<svg id="Capa_1" data-name="Capa 1" xmlns="http://www.w3.org/2000/svg" viewBox="0 0 171 176"><defs><style>.cls-1,.cls-4{fill:#58708c;}.cls-2{fill:#edb89d;stroke:#ea7e6c;stroke-miterlimit:10;}.cls-3,.cls-4{font-size:5.84px;font-family:OpenSans-SemiboldItalic, Open Sans;font-weight:700;font-style:italic;}.cls-3{fill:#fff;}.cls-5{fill:#ea7e6c;}</style></defs><title>u2_p4_esquema2</title><polygon class="cls-1" points="102.45 59 69.55 59 53.11 87.49 69.55 115.97 102.45 115.97 118.89 87.49 102.45 59"/><polygon class="cls-2" points="53.45 30 20.55 30 4.11 58.49 20.55 86.97 53.45 86.97 69.89 58.49 53.45 30"/><polygon class="cls-2" points="151.45 87 118.55 87 102.11 115.49 118.55 143.97 151.45 143.97 167.89 115.49 151.45 87"/><polygon class="cls-2" points="102.45 116 69.55 116 53.11 144.49 69.55 172.97 102.45 172.97 118.89 144.49 102.45 116"/><polygon class="cls-2" points="102.45 2 69.55 2 53.11 30.49 69.55 58.97 102.45 58.97 118.89 30.49 102.45 2"/><polygon class="cls-2" points="53.45 87 20.55 87 4.11 115.49 20.55 143.97 53.45 143.97 69.89 115.49 53.45 87"/><polygon class="cls-2" points="151.45 30 118.55 30 102.11 58.49 118.55 86.97 151.45 86.97 167.89 58.49 151.45 30"/><text class="cls-3" transform="translate(61.55 89.44)">DOCUMENTACIÓN</text><text class="cls-4" transform="translate(74.7 30.79)">ANÁLISIS</text><text class="cls-4" transform="translate(124.7 59.79)">DISEÑO</text><text class="cls-4" transform="translate(116.36 116.79)">CODIFICACIÓN</text><text class="cls-4" transform="translate(13.67 59.79)">MANTENIMIENTO</text><text class="cls-4" transform="translate(18.41 117.79)">IMPLATACIÓN</text><text class="cls-4" transform="translate(73.77 147.79)">PRUEBAS</text><polygon class="cls-5" points="25.37 87 37.39 74.98 49.41 87 25.37 87"/><polygon class="cls-5" points="55.5 34.52 71.87 39.11 67.29 55.48 55.5 34.52"/><polygon class="cls-5" points="56.39 139.42 51.98 123 68.39 118.58 56.39 139.42"/><polygon class="cls-5" points="116.49 140.36 100.03 136.1 104.3 119.64 116.49 140.36"/><polygon class="cls-5" points="147.41 87.35 135.22 99.19 123.37 87 147.41 87.35"/><polygon class="cls-5" points="116.47 33.8 120.76 50.25 104.32 54.55 116.47 33.8"/></svg>