<?xml version="1.0" encoding="utf-8"?>
<!-- Generator: Adobe Illustrator 22.1.0, SVG Export Plug-In . SVG Version: 6.00 Build 0)  -->
<svg version="1.1" id="Capa_1" xmlns="http://www.w3.org/2000/svg" xmlns:xlink="http://www.w3.org/1999/xlink" x="0px" y="0px"
	 viewBox="0 0 269 120.3" style="enable-background:new 0 0 269 120.3;" xml:space="preserve">
<style type="text/css">
	.st0{fill:#CCCCCC;}
	.st1{fill:#999999;}
	.st2{fill:#EA7E6C;}
	.st3{fill:#58708C;}
	.st4{fill:#6EB76F;}
	.st5{fill:#E6E6E6;}
	.st6{fill:#BBBCBB;}
	.st7{enable-background:new    ;}
	.st8{fill:#FFFFFF;}
	.st9{font-family:'OpenSans-Bold';}
	.st10{font-size:8.3px;}
	.st11{fill:#5D5D5B;}
	.st12{font-family:'OpenSans-BoldItalic';}
	.st13{font-size:7px;}
</style>
<title>u3_p1_organizador_grafico</title>
<circle class="st0" cx="59.8" cy="60.8" r="56.4"/>
<circle class="st1" cx="59.8" cy="60.8" r="37.3"/>
<path class="st2" d="M105.1,63.1c-0.5,12.5-6.2,24.2-15.8,32.2c1.2,0.9,2.4,1.8,3.6,2.7c2-1.8,3.8-3.7,5.5-5.7
	c6.7-8.3,10.5-18.5,11-29.2H105.1z"/>
<path class="st3" d="M91.9,28.7c0.9-1.1,1.9-2.2,2.9-3.2c-9.1-8.9-21.2-14-33.9-14.3c-1.2,0-2.2,0.9-2.2,2.1c0,0,0,0,0,0v0.1
	c0,1.2,0.9,2.1,2.1,2.1C72.4,15.8,83.6,20.5,91.9,28.7z"/>
<path class="st4" d="M102.6,35.4c-1.7-2.9-3.8-5.6-6.1-8.1c-1,1-2,2.1-2.9,3.2c0.3,0.4,0.7,0.7,1,1.1c6.8,8.1,10.5,18.3,10.6,28.8
	h4.3C109.5,51.6,107.1,43,102.6,35.4z"/>
<path class="st5" d="M128.6,7.2h133.2c2.5,0,4.5,2,4.5,4.5c0,0,0,0,0,0l0,0v21.1c0,2.5-2,4.5-4.5,4.5H128.6c-3.3,0-6-2.7-6-6V13.2
	C122.6,9.9,125.3,7.2,128.6,7.2L128.6,7.2z"/>
<path class="st3" d="M128.6,7.2h28v30.1h-28c-3.3,0-6-2.7-6-6V13.2C122.6,9.9,125.3,7.2,128.6,7.2L128.6,7.2z"/>
<path class="st2" d="M102.5,62.9c0,2.5,2,4.5,4.5,4.5s4.5-2,4.5-4.5s-2-4.5-4.5-4.5C104.5,58.4,102.5,60.4,102.5,62.9z"/>
<circle class="st4" cx="93.6" cy="28.5" r="4.5"/>
<polygon class="st6" points="156.6,7.2 156.6,37.3 175.2,37.3 "/>
<path class="st5" d="M128.6,43.4h133.2c2.5,0,4.5,2,4.5,4.5c0,0,0,0,0,0l0,0V69c0,2.5-2,4.5-4.5,4.5H128.6c-3.3,0-6-2.7-6-6V49.4
	C122.6,46.1,125.3,43.4,128.6,43.4z"/>
<path class="st4" d="M128.6,43.4h28v30.1h-28c-3.3,0-6-2.7-6-6V49.4C122.6,46.1,125.3,43.4,128.6,43.4z"/>
<polygon class="st6" points="156.6,43.4 156.6,73.5 175.2,73.5 "/>
<path class="st5" d="M128.6,79.6h133.2c2.5,0,4.5,2,4.5,4.5c0,0,0,0,0,0l0,0v21.1c0,2.5-2,4.5-4.5,4.5H128.6c-3.3,0-6-2.7-6-6V85.6
	C122.6,82.3,125.3,79.6,128.6,79.6z"/>
<path class="st2" d="M128.6,79.6h28v30.1h-28c-3.3,0-6-2.7-6-6V85.6C122.6,82.3,125.3,79.6,128.6,79.6z"/>
<polygon class="st6" points="156.6,79.6 156.6,109.7 175.2,109.7 "/>
<g>
	<text transform="matrix(1 0 0 1 43.9717 52.9541)" class="st7"><tspan x="0" y="0" class="st8 st9 st10">Entrega</tspan><tspan x="9.7" y="10" class="st8 st9 st10">del</tspan><tspan x="-2.4" y="19.9" class="st8 st9 st10">proyecto</tspan></text>
</g>
<g>
	<text transform="matrix(1 0 0 1 175.25 20.04)" class="st11 st12 st13">Cierre del proyecto o fase</text>
</g>
<g>
	<text transform="matrix(1 0 0 1 175.25 56.71)" class="st7"><tspan x="0" y="0" class="st11 st12 st13">Proceso de la gestión </tspan><tspan x="0" y="8.4" class="st11 st12 st13">de riesgos </tspan></text>
</g>
<g>
	<text transform="matrix(1 0 0 1 175.25 93.37)" class="st7"><tspan x="0" y="0" class="st11 st12 st13">Validación del alcance</tspan><tspan x="0" y="8.4" class="st11 st12 st13">del proyecto</tspan></text>
</g>
</svg>
