<svg xmlns="http://www.w3.org/2000/svg" xmlns:xlink="http://www.w3.org/1999/xlink" viewBox="0 0 269 148"><defs><style>.cls-1{isolation:isolate;}.cls-2{fill:#ccc;}.cls-3{fill:#999;}.cls-4{fill:#9ccde4;}.cls-5{fill:#ea7e6c;}.cls-6{fill:#58708c;}.cls-7{fill:#6eb76f;}.cls-8{fill:#e6e6e6;}.cls-10,.cls-11,.cls-12,.cls-9{mix-blend-mode:overlay;}.cls-9{fill:url(#linear-gradient);}.cls-10{fill:url(#linear-gradient-2);}.cls-11{fill:url(#linear-gradient-3);}.cls-12{fill:url(#linear-gradient-4);}.cls-13{font-size:8.3px;fill:#fff;font-family:OpenSans-Semibold, Open Sans;}.cls-13,.cls-14{font-weight:700;}.cls-14{font-size:7px;fill:#5d5d5b;font-family:OpenSans-SemiboldItalic, Open Sans;font-style:italic;}</style><linearGradient id="linear-gradient" x1="156.61" y1="18.42" x2="175.25" y2="18.42" gradientUnits="userSpaceOnUse"><stop offset="0" stop-opacity="0"/><stop offset="1"/></linearGradient><linearGradient id="linear-gradient-2" x1="156.61" y1="54.62" x2="175.25" y2="54.62" xlink:href="#linear-gradient"/><linearGradient id="linear-gradient-3" x1="156.61" y1="90.82" x2="175.25" y2="90.82" xlink:href="#linear-gradient"/><linearGradient id="linear-gradient-4" x1="156.61" y1="127.02" x2="175.25" y2="127.02" xlink:href="#linear-gradient"/></defs><title>u1_p1_organizador_grafico</title><g class="cls-1"><g id="Capa_1" data-name="Capa 1"><circle class="cls-2" cx="59.85" cy="76.18" r="56.36"/><circle class="cls-3" cx="59.85" cy="76.18" r="37.29"/><path class="cls-4" d="M87.36,112.23a46.17,46.17,0,0,1-26.65,9.34,2.14,2.14,0,0,0,.12,4.28A50.62,50.62,0,0,0,90.93,115C89.75,114.05,88.55,113.15,87.36,112.23Z"/><path class="cls-5" d="M105.12,78.39a44.48,44.48,0,0,1-15.76,32.23c1.19.9,2.39,1.79,3.56,2.69a48,48,0,0,0,5.49-5.72,50.08,50.08,0,0,0,11-29.2Z"/><path class="cls-6" d="M91.9,44.05c.92-1.12,1.87-2.2,2.87-3.24A50.59,50.59,0,0,0,60.83,26.52a2.15,2.15,0,0,0-2.2,2.14v.05a2.13,2.13,0,0,0,2.07,2.13A46.07,46.07,0,0,1,91.9,44.05Z"/><path class="cls-7" d="M102.61,50.75a49,49,0,0,0-6.06-8.1c-1,1-2,2.13-2.88,3.25.32.36.65.71,1,1.07a45.34,45.34,0,0,1,10.56,28.82h4.31A49.14,49.14,0,0,0,102.61,50.75Z"/><path class="cls-8" d="M128.61,3.39H261.82a4.48,4.48,0,0,1,4.48,4.48V29a4.48,4.48,0,0,1-4.48,4.48H128.61a6,6,0,0,1-6-6V9.35a6,6,0,0,1,6-6Z"/><path class="cls-6" d="M128.61,3.39h28a0,0,0,0,1,0,0V33.45a0,0,0,0,1,0,0h-28a6,6,0,0,1-6-6V9.35a6,6,0,0,1,6-6Z"/><circle class="cls-4" cx="90.56" cy="112.21" r="4.48"/><path class="cls-5" d="M102.52,78.25A4.48,4.48,0,1,0,107,73.77,4.49,4.49,0,0,0,102.52,78.25Z"/><circle class="cls-7" cx="93.56" cy="43.78" r="4.48"/><polygon class="cls-9" points="156.61 3.38 156.61 33.45 175.25 33.45 156.61 3.38"/><path class="cls-8" d="M128.61,39.59H261.82a4.48,4.48,0,0,1,4.48,4.48v21.1a4.48,4.48,0,0,1-4.48,4.48H128.61a6,6,0,0,1-6-6V45.55A6,6,0,0,1,128.61,39.59Z"/><path class="cls-7" d="M128.61,39.59h28a0,0,0,0,1,0,0V69.65a0,0,0,0,1,0,0h-28a6,6,0,0,1-6-6V45.55A6,6,0,0,1,128.61,39.59Z"/><polygon class="cls-10" points="156.61 39.59 156.61 69.65 175.25 69.65 156.61 39.59"/><path class="cls-8" d="M128.61,75.79H261.82a4.48,4.48,0,0,1,4.48,4.48v21.1a4.48,4.48,0,0,1-4.48,4.48H128.61a6,6,0,0,1-6-6V81.75A6,6,0,0,1,128.61,75.79Z"/><path class="cls-5" d="M128.61,75.79h28a0,0,0,0,1,0,0v30.06a0,0,0,0,1,0,0h-28a6,6,0,0,1-6-6V81.75A6,6,0,0,1,128.61,75.79Z"/><polygon class="cls-11" points="156.61 75.79 156.61 105.85 175.25 105.85 156.61 75.79"/><path class="cls-8" d="M128.61,112H261.82a4.48,4.48,0,0,1,4.48,4.48v21.1a4.48,4.48,0,0,1-4.48,4.48H128.61a6,6,0,0,1-6-6V118A6,6,0,0,1,128.61,112Z"/><path class="cls-4" d="M128.61,112h28a0,0,0,0,1,0,0v30.06a0,0,0,0,1,0,0h-28a6,6,0,0,1-6-6V118A6,6,0,0,1,128.61,112Z"/><polygon class="cls-12" points="156.61 111.99 156.61 142.05 175.25 142.05 156.61 111.99"/><text class="cls-13" transform="translate(39.08 68.96)">MODELOS<tspan x="-8.37" y="9.96">DE EQUIPO DE</tspan><tspan x="2.52" y="19.92">TRABAJO</tspan></text><text class="cls-14" transform="translate(162.17 16.2)">Escalabilidad del modelo<tspan x="0" y="8.58">de equipo</tspan></text><text class="cls-14" transform="translate(162.17 52.87)">Conceptos y<tspan x="0" y="8.58">características</tspan></text><text class="cls-14" transform="translate(162.17 89.53)">Tipos de equipos de <tspan x="0" y="8.58">trabajo</tspan></text><text class="cls-14" transform="translate(162.17 126.2)">Roles de equipo de <tspan x="0" y="8.58">trabajo</tspan></text></g></g></svg>