<svg xmlns="http://www.w3.org/2000/svg" xmlns:xlink="http://www.w3.org/1999/xlink" viewBox="0 0 231 148"><defs><style>.cls-1{isolation:isolate;}.cls-2,.cls-9{font-size:6.5px;font-weight:700;}.cls-2,.cls-8,.cls-9{fill:#5d5d5b;}.cls-2{font-family:Poppins-SemiBold, Poppins;}.cls-3{fill:#f9b300;}.cls-4{fill:#c15446;}.cls-5{fill:#f3f3f3;}.cls-11,.cls-14,.cls-17,.cls-6{mix-blend-mode:overlay;}.cls-6{fill:url(#linear-gradient);}.cls-7{fill:#ea7e6c;}.cls-8{font-size:3.55px;font-family:OpenSans, Open Sans;}.cls-9{font-family:OpenSans-Bold, Open Sans;}.cls-10{fill:#2b435b;}.cls-11{fill:url(#linear-gradient-2);}.cls-12{fill:#58708c;}.cls-13{fill:#266c84;}.cls-14{fill:url(#linear-gradient-3);}.cls-15{fill:#77b4cf;}.cls-16{fill:#93624d;}.cls-17{fill:url(#linear-gradient-4);}.cls-18{fill:#edb89d;}.cls-19,.cls-20,.cls-21{fill:none;stroke:#676868;stroke-linecap:round;stroke-linejoin:round;}.cls-20{stroke-dasharray:2.94 2.94;}.cls-21{stroke-dasharray:3 3;}</style><linearGradient id="linear-gradient" x1="95.45" y1="5.32" x2="44.62" y2="51.7" gradientUnits="userSpaceOnUse"><stop offset="0" stop-opacity="0"/><stop offset="1"/></linearGradient><linearGradient id="linear-gradient-2" x1="214.45" y1="5.32" x2="163.62" y2="51.7" xlink:href="#linear-gradient"/><linearGradient id="linear-gradient-3" x1="95.45" y1="79.32" x2="44.62" y2="125.7" xlink:href="#linear-gradient"/><linearGradient id="linear-gradient-4" x1="214.45" y1="79.32" x2="163.62" y2="125.7" xlink:href="#linear-gradient"/></defs><title>u1_p2_esquema1</title><g class="cls-1"><g id="Capa_1" data-name="Capa 1"><text class="cls-2" transform="translate(43.59 19.52)">LOREM IPSUM</text><rect class="cls-3" x="3.12" y="6.72" width="29.08" height="31.17"/><rect class="cls-4" x="3.12" y="6.72" width="29.08" height="31.17"/><rect class="cls-5" x="7.28" y="10.28" width="98.72" height="61.49" rx="4.55" ry="4.55"/><rect class="cls-6" x="8.71" y="11.65" width="95.22" height="58.73" rx="4.28" ry="4.28"/><rect class="cls-7" x="3.19" y="6.77" width="26.57" height="28.87"/><text class="cls-8" transform="translate(39.2 26.16)">Resolución de problemas<tspan x="0" y="5.91">Presentación de sugerencias</tspan><tspan x="0" y="11.83">Discusión de innovaciones</tspan><tspan x="0" y="17.74">Reingeniería de procesos</tspan><tspan x="0" y="23.65">Desarrollo de productos</tspan><tspan x="0" y="29.56">Evaluación de procesos</tspan><tspan x="0" y="35.48">Otros objetivos de la</tspan><tspan x="0" y="41.39">organización</tspan></text><text class="cls-9" transform="translate(39.45 19.52)">PROPÓSITO</text><rect class="cls-7" x="36" y="24" width="2" height="2"/><rect class="cls-7" x="36" y="29.83" width="2" height="2"/><rect class="cls-7" x="36" y="35.67" width="2" height="2"/><rect class="cls-7" x="36" y="41.5" width="2" height="2"/><rect class="cls-7" x="36" y="47.33" width="2" height="2"/><rect class="cls-7" x="36" y="53.17" width="2" height="2"/><rect class="cls-7" x="36" y="59" width="2" height="2"/><text class="cls-2" transform="translate(162.59 19.52)">LOREM IPSUM</text><rect class="cls-3" x="122.12" y="6.72" width="29.08" height="31.17"/><rect class="cls-10" x="122.12" y="6.72" width="29.08" height="31.17"/><rect class="cls-5" x="126.28" y="10.28" width="98.72" height="61.49" rx="4.55" ry="4.55"/><rect class="cls-11" x="127.71" y="11.65" width="95.22" height="58.73" rx="4.28" ry="4.28"/><rect class="cls-12" x="122.19" y="6.77" width="26.57" height="28.87"/><text class="cls-8" transform="translate(158.2 26.16)">Funcional cruzado<tspan x="0" y="5.91">Virtual</tspan><tspan x="0" y="11.83">Autodirigido</tspan><tspan x="0" y="17.74">Fuerza de tarea</tspan></text><text class="cls-9" transform="translate(158.2 19.52)">TIPO</text><rect class="cls-12" x="155" y="24" width="2" height="2"/><rect class="cls-12" x="155" y="29.83" width="2" height="2"/><rect class="cls-12" x="155" y="35.67" width="2" height="2"/><rect class="cls-12" x="155" y="41.5" width="2" height="2"/><text class="cls-2" transform="translate(43.59 93.52)">LOREM IPSUM</text><rect class="cls-3" x="3.12" y="80.72" width="29.08" height="31.17"/><rect class="cls-13" x="3.12" y="80.72" width="29.08" height="31.17"/><rect class="cls-5" x="7.28" y="84.28" width="98.72" height="61.49" rx="4.55" ry="4.55"/><rect class="cls-14" x="8.71" y="85.65" width="95.22" height="58.73" rx="4.28" ry="4.28"/><rect class="cls-15" x="3.19" y="80.77" width="26.57" height="28.87"/><text class="cls-8" transform="translate(39.2 100.16)">Administrada<tspan x="0" y="5.91">Autodirigida</tspan></text><text class="cls-9" transform="translate(39.29 93.52)">ESTRUCTURA</text><rect class="cls-15" x="36" y="98" width="2" height="2"/><rect class="cls-15" x="36" y="103.83" width="2" height="2"/><text class="cls-2" transform="translate(162.59 93.52)">LOREM IPSUM</text><rect class="cls-3" x="122.12" y="80.72" width="29.08" height="31.17"/><rect class="cls-16" x="122.12" y="80.72" width="29.08" height="31.17"/><rect class="cls-5" x="126.28" y="84.28" width="98.72" height="61.49" rx="4.55" ry="4.55"/><rect class="cls-17" x="127.71" y="85.65" width="95.22" height="58.73" rx="4.28" ry="4.28"/><rect class="cls-18" x="122.19" y="80.77" width="26.57" height="28.87"/><text class="cls-8" transform="translate(158.2 100.16)">Permanente<tspan x="0" y="5.91">Temporal (plazo defi nido)</tspan><tspan x="0" y="11.83">Variable (lo que dure la tarea)</tspan></text><text class="cls-9" transform="translate(158.2 93.52)">DURACIÓN</text><rect class="cls-18" x="155" y="98" width="2" height="2"/><rect class="cls-18" x="155" y="103.83" width="2" height="2"/><rect class="cls-18" x="155" y="109.67" width="2" height="2"/><line class="cls-19" x1="115" y1="5" x2="115" y2="6.5"/><line class="cls-20" x1="115" y1="9.44" x2="115" y2="143.03"/><line class="cls-19" x1="115" y1="144.5" x2="115" y2="146"/><line class="cls-19" x1="225.5" y1="77.5" x2="224" y2="77.5"/><line class="cls-21" x1="221" y1="77.5" x2="6.5" y2="77.5"/><line class="cls-19" x1="5" y1="77.5" x2="3.5" y2="77.5"/></g></g></svg>