<?xml version="1.0" encoding="utf-8"?>
<!-- Generator: Adobe Illustrator 22.0.1, SVG Export Plug-In . SVG Version: 6.00 Build 0)  -->
<svg version="1.1" id="Capa_1" xmlns="http://www.w3.org/2000/svg" xmlns:xlink="http://www.w3.org/1999/xlink" x="0px" y="0px"
	 viewBox="0 0 532.8 88.9" style="enable-background:new 0 0 532.8 88.9;" xml:space="preserve">
<style type="text/css">
	.st0{fill:#FFFFFF;}
	.st1{font-family:'Gotham-Book';}
	.st2{font-size:6.4935px;}
	.st3{display:none;}
	.st4{display:inline;}
	.st5{fill:#D1D3D4;}
</style>
<g>
	<rect x="428.6" y="33.1" class="st0" width="1.7" height="6.3"/>
	<path class="st0" d="M431.5,33.1h2.9c1,0,1.6,0.2,2,0.6c0.3,0.3,0.6,0.8,0.6,1.5l0,0c0,1-0.5,1.5-1.3,1.9l1.5,2.2h-1.9l-1.2-1.9
		l0,0h-0.7v1.9h-1.7L431.5,33.1L431.5,33.1z M434.4,36.1c0.6,0,0.9-0.2,0.9-0.7l0,0c0-0.5-0.3-0.7-0.9-0.7h-1.1v1.5
		C433.3,36.1,434.4,36.1,434.4,36.1z"/>
	<path class="st0" d="M437.7,36.2L437.7,36.2c0-1.9,1.4-3.2,3.2-3.2c1.3,0,2.1,0.6,2.6,1.3l-1.3,1c-0.3-0.4-0.7-0.7-1.4-0.7
		c-0.9,0-1.5,0.7-1.5,1.6l0,0c0,0.9,0.6,1.6,1.5,1.6c0.6,0,1.1-0.3,1.4-0.7l1.3,0.9c-0.6,0.8-1.4,1.4-2.8,1.4
		C439.1,39.4,437.7,38.1,437.7,36.2"/>
	<path class="st0" d="M417.9,34h-1h-1.1V33v-1c0-3.4-2.8-6.2-6.2-6.2c-3.4,0-6.2,2.8-6.2,6.2l0,0v10.3h-2.1l0,0
		c-3.4,0-6.2,2.8-6.2,6.2s2.8,6.2,6.2,6.2h1h1.1v1.1v1c0,3.4,2.8,6.2,6.2,6.2c3.4,0,6.2-2.8,6.2-6.2l0,0V46.3h2.1l0,0
		c3.4,0,6.2-2.8,6.2-6.2C423.9,36.8,421.2,34,417.9,34 M409.6,29.9c1.1,0,2.1,1,2.1,2.1v1v1.1l0,0l0,0h-1.1h-1c-1.1,0-2.1-1-2.1-2.1
		C407.5,30.8,408.4,29.9,409.6,29.9 M407.5,37.7c0.6,0.2,1.4,0.4,2.1,0.4h1h1.1v1.1v1c0,0.7,0.2,1.5,0.4,2.1h-4.5L407.5,37.7
		C407.5,37.7,407.5,37.7,407.5,37.7z M403.5,49.4v1.1l0,0h-1.1h-1c-1.1,0-2.1-1-2.1-2.1c0-1.1,1-2.1,2.1-2.1s2.1,1,2.1,2.1V49.4z
		 M409.6,58.7c-1.1,0-2.1-1-2.1-2.1v-1v-1.1l0,0l0,0h1.1h1c1.1,0,2.1,1,2.1,2.1C411.7,57.8,410.7,58.7,409.6,58.7 M411.7,50.9
		c-0.6-0.2-1.4-0.4-2.1-0.4h-1h-1.1v-1.1v-1c0-0.7-0.2-1.5-0.4-2.1h0.4h4.2V50.9z M417.9,42.3c-1.1,0-2.1-1-2.1-2.1v-1v-1.1l0,0l0,0
		h1.1h1c1.1,0,2.1,1,2.1,2.1C419.9,41.3,419,42.3,417.9,42.3"/>
	<rect x="230.4" y="25.8" class="st0" width="0.6" height="37"/>
	<rect x="385" y="33.1" class="st0" width="0.6" height="21.9"/>
	<path class="st0" d="M86,47c0.2,0.4,0.6,0.6,1.1,0.6c0.7,0,1.1-0.6,1.1-0.6l11.6-14.8c1-1,1.9-0.2,1.9-0.2c0.9,1,0.2,1.8,0.2,1.8
		l-2.6,3.3l0,0c-0.2,0.2-0.3,0.6-0.3,0.9s0.1,0.6,0.3,0.8l0,0l2.6,3.3l8.2-10.4l-3.2-4.1l-0.6-0.8c-0.6-0.7-1.7-1-1.7-1h-4.9
		c-1.3,0-2,0.9-2,0.9L83.9,44.3L86,47z"/>
	<path class="st0" d="M85.5,38l-3.2-4.2c-0.6-1.1,0.3-1.9,0.3-1.9c1.2-0.7,1.9,0.4,1.9,0.4l2.7,3.5l3.2-4.1l-3.7-4.8
		c-0.9-1.3-2.3-1.1-2.3-1.1h-4.5c-1.4,0-2,0.9-2,0.9l-3.9,5l8.2,10.5L85.5,38z"/>
	<path class="st0" d="M98.1,41.6c0,0-0.4-0.6-1.1-0.6s-1.1,0.5-1.1,0.5l-11.6,15c-1,1.1-1.9,0.2-1.9,0.2c-0.9-1-0.2-1.9-0.2-1.9
		l2.6-3.3l0,0c0.2-0.2,0.3-0.6,0.3-0.9s-0.1-0.6-0.3-0.8l0,0l-2.6-3.3L74,57l4.5,5.8h7.2l14.5-18.4L98.1,41.6z"/>
	<path class="st0" d="M98.8,50.6l3.3,4.2c0.7,1.1-0.2,1.9-0.2,1.9c-1.3,0.9-2-0.4-2-0.4l-2.8-3.5l-3.2,4.1l4.6,5.9h7.1l4.5-5.8
		L102,46.5L98.8,50.6z"/>
	<path class="st0" d="M110.1,41.1c-1.9,0-3.3,1.5-3.3,3.2s1.5,3.2,3.3,3.2c1.9,0,3.3-1.5,3.3-3.2S111.9,41.1,110.1,41.1 M110.1,46.1
		c-1,0-1.8-0.8-1.8-1.8s0.8-1.8,1.8-1.8c1,0,1.7,0.8,1.7,1.8S111,46.1,110.1,46.1"/>
	<path class="st0" d="M92.1,25.8c1.9,0,3.3-1.5,3.3-3.2c0-1.8-1.5-3.2-3.3-3.2c-1.9,0-3.3,1.5-3.3,3.2
		C88.8,24.3,90.3,25.8,92.1,25.8 M92.1,20.8c1,0,1.7,0.8,1.7,1.8c0,1-0.8,1.8-1.7,1.8c-1,0-1.7-0.8-1.7-1.8
		C90.3,21.5,91.1,20.8,92.1,20.8"/>
	<path class="st0" d="M77.3,44.3c0-1.8-1.5-3.2-3.3-3.2c-1.9,0-3.3,1.5-3.3,3.2s1.5,3.2,3.3,3.2C75.9,47.6,77.3,46.1,77.3,44.3
		 M72.3,44.3c0-1,0.8-1.8,1.8-1.8c1,0,1.8,0.8,1.8,1.8s-0.8,1.8-1.8,1.8C73,46,72.3,45.3,72.3,44.3"/>
	<path class="st0" d="M92.1,62.8c-1.9,0-3.3,1.5-3.3,3.2s1.5,3.2,3.3,3.2s3.3-1.5,3.3-3.2C95.5,64.3,93.9,62.8,92.1,62.8 M92.1,67.9
		c-1,0-1.8-0.8-1.8-1.8s0.8-1.8,1.8-1.8c1,0,1.8,0.8,1.8,1.8C93.8,67,93.1,67.9,92.1,67.9"/>
	<path class="st0" d="M56.5,23.5V48c0,3-1,5.7-2.8,8.1c-1.5,1.9-3.6,3.8-6.3,5.4c-4.1,2.4-8.2,3.5-9.1,3.7c-0.9-0.2-5-1.3-9.1-3.7
		c-2.7-1.5-4.8-3.3-6.3-5.4c-1.9-2.4-2.8-5.2-2.8-8.2V23.5H56.5z M57.5,22.5H19.3v25.4c0,14,19.1,18.2,19.1,18.2l0,0
		c0,0,19.1-4.2,19.1-18.2V22.5z"/>
	<path class="st0" d="M43,30.6v-2.4h-2.4v2.2h-1v-2.2h-2.4v2.2h-1v-2.2h-2.4v2.4l1.2,2l0.1,0.2v10.7h1.1v-3.8c0-0.9,1.1-1.7,2.2-1.7
		s2.2,0.8,2.2,1.7v3.8h1.2v-4.1v-0.1v-2l0,0V36l0,0v-0.6V33l0.1-0.2L43,30.6z"/>
	<path class="st0" d="M34.2,43.8v-3.6l-0.4,0.2c-0.2,0.1-0.3,0.1-0.5,0l-0.5-0.3v0.1v1.4c0,0.2-0.1,0.2-0.2,0.3l0.2,0.1
		c0.6,0.5,0.6,1.2,0.6,1.8C33.4,43.8,34.2,43.8,34.2,43.8z"/>
	<path class="st0" d="M38.4,39c-0.7,0-1.2,0.5-1.2,0.8v3.8h2.4v-3.8C39.6,39.5,39.1,39,38.4,39"/>
	<path class="st0" d="M24.1,43.8c-0.2-0.3-0.2-0.6-0.3-1.1c-0.1-0.7-0.1-1.5-0.1-1.5c0-0.2,0.2-0.4,0.3-0.4l1.1-0.3l-1.1-0.8
		c-0.2-0.1-0.2-0.2-0.2-0.4v-1.3c0-0.2,0.1-0.3,0.2-0.4l0.5-0.2V37l-0.4-0.2c-0.2-0.1-0.3-0.2-0.3-0.4v-1.5c0-0.2,0.2-0.5,0.5-0.5
		h1.5c0-0.4,0-0.9,0.1-1.4c0.2-0.6,0.5-1.2,0.6-1.5l-0.1-0.6c0-0.2,0-0.2,0.1-0.4c0.1-0.1,0.2-0.2,0.3-0.2h0.8l0.2,0.1l1.9,1.2h0.9
		c0.2,0,0.2,0.1,0.3,0.2c0.1,0.1,0.2,0.2,0.2,0.3l-0.1,1.5c0,0.2-0.1,0.2-0.2,0.3h0.6c0.2,0,0.2,0.1,0.3,0.2l0.2,0.2l0.2-0.2
		l0.3-0.7c0.1-0.2,0.2-0.2,0.4-0.2h1.2V33L33,31l-0.1-0.2v-2.9c0-0.2,0.2-0.5,0.5-0.5h2.9h0.9h2.4h1h2.8c0.2,0,0.5,0.2,0.5,0.5v2.9
		L43.8,31l-1.2,2v0.2h1.2c0.2,0,0.3,0.1,0.4,0.2l0.3,0.7l0.2,0.2l0.2-0.2c0.1-0.1,0.2-0.2,0.3-0.2h0.6c-0.1-0.1-0.2-0.2-0.2-0.3
		l-0.1-1.5c0-0.2,0.1-0.2,0.2-0.3s0.2-0.2,0.3-0.2H47l1.9-1.2l0.2-0.1h0.8c0.2,0,0.2,0.1,0.3,0.2c0.1,0.1,0.2,0.2,0.1,0.4l-0.1,0.6
		c0.2,0.3,0.5,0.9,0.6,1.5c0.1,0.4,0.1,1,0.1,1.4h1.5c0.2,0,0.5,0.2,0.5,0.5v1.5c0,0.2-0.1,0.3-0.3,0.4L52.3,37v0.4l0.5,0.2
		c0.2,0.1,0.2,0.2,0.2,0.4v1.3c0,0.2-0.1,0.3-0.2,0.4l-1.1,0.8l1.1,0.3c0.2,0.1,0.3,0.2,0.3,0.4c0,0,0,0.7-0.1,1.5
		c-0.1,0.4-0.2,0.8-0.3,1.1h1.7l0,0V25.7H22.4v18.1C22.4,43.8,24.1,43.8,24.1,43.8z"/>
	<path class="st0" d="M44.2,42l0.2-0.1c-0.1-0.1-0.2-0.2-0.2-0.3v-1.4v-0.1l-0.5,0.3c-0.2,0.1-0.3,0.1-0.5,0l-0.4-0.2v3.6h1
		C43.5,43.3,43.5,42.5,44.2,42"/>
	<path class="st0" d="M50.4,53.6c-0.2,0-0.5-0.2-0.5-0.5V50c0-0.2-0.2-0.5-0.3-0.7c-0.2-0.2-0.5-0.4-1-0.4c-0.7,0-1.1,0.6-1.2,1.1v3
		c0,0.2-0.1,0.2-0.2,0.3s-0.2,0.2-0.3,0.2h-2.8c-0.2,0-0.5-0.2-0.5-0.5v-3c0-0.2-0.2-0.5-0.3-0.7c-0.2-0.2-0.5-0.4-1-0.4
		c-0.3,0-0.6,0.1-0.8,0.3l2.3,11.7c3.2-1.5,7.1-3.7,9.1-7.4L50.4,53.6L50.4,53.6z"/>
	<path class="st0" d="M42.9,61.2l-3.2-16.4h-2.6l-3.2,16.4v0.1c2.3,0.9,4.1,1.4,4.5,1.5C39,62.7,40.7,62.3,42.9,61.2L42.9,61.2z"/>
	<path class="st0" d="M35.2,49.3c-0.2-0.2-0.5-0.3-0.8-0.3l0,0c-0.5,0-0.7,0.2-1,0.4c-0.2,0.2-0.3,0.4-0.3,0.6v3.1
		c0,0.2-0.2,0.5-0.5,0.5h-2.8c-0.2,0-0.2-0.1-0.3-0.2c-0.1-0.1-0.2-0.2-0.2-0.3v-3c-0.1-0.6-0.5-1.1-1.2-1.1l0,0
		c-0.5,0-0.7,0.2-1,0.4c-0.2,0.2-0.3,0.5-0.3,0.7v3.1c0,0.2-0.2,0.5-0.5,0.5h-2.5c2,3.6,5.8,5.9,9.1,7.4L35.2,49.3z"/>
	<path class="st0" d="M54.4,44.8H40.7l0.6,3.4c0.3-0.2,0.6-0.2,1-0.2c0.6,0,1.2,0.2,1.6,0.6c0.4,0.4,0.6,0.9,0.6,1.4v2.6h1.9V50
		v-0.1c0.1-1.1,1.1-1.9,2.1-2c0.6,0,1.2,0.2,1.6,0.6c0.4,0.4,0.6,0.9,0.6,1.4v2.6h2.6c0.6-1.4,1.1-3,1.1-4.8L54.4,44.8L54.4,44.8z"
		/>
	<path class="st0" d="M26,52.6V50c0-0.5,0.2-1,0.6-1.4c0.4-0.4,1.1-0.6,1.6-0.6c1.1,0,2,0.9,2.1,2v0.1v2.6h1.9V50
		c0-0.5,0.2-1,0.6-1.4c0.4-0.4,1.1-0.6,1.6-0.6c0.3,0,0.6,0.1,1,0.2l0.6-3.4H22.4v3.1c0,1.8,0.4,3.3,1.1,4.8L26,52.6L26,52.6z"/>
	<path class="st0" d="M27.1,42.9h0.7l0.1,0.3v0.2c0,0.2,0,0.3-0.1,0.5h-2.7c-0.4-0.2-0.6-1.3-0.6-2.2l1.1-0.3
		c0.2-0.1,0.3-0.2,0.3-0.5v-0.5c0-0.2-0.1-0.3-0.2-0.4L24.6,39v-0.8l0.5-0.2c0.2-0.1,0.2-0.2,0.2-0.4v-1.1c0-0.2-0.1-0.3-0.3-0.4
		L24.6,36v-0.8h1.2l0.6,1v1.3L26,38.7c-0.1,0.2,0,0.3,0.1,0.4c0.1,0.1,0.2,0.2,0.4,0.2h0.3c0.2,0,0.4-0.2,0.5-0.4
		c0-0.2,0.2-0.8,0.2-1.1c0.1-0.2,0.4-0.6,0.6-0.9c0.2-0.2,0.2-0.4,0-0.6l-1.6-1.9c0-0.2-0.1-1,0-1.4c0.1-0.5,0.5-1.1,0.6-1.4
		l0.1-0.3v-0.2h0.1l1.9,1.2l0.2,0.1h0.5v0.7l-0.6,0.2c-0.2,0.1-0.3,0.2-0.3,0.4v0.5c0,0.2,0.2,0.5,0.5,0.5H31l0.4,0.4
		c0.2,0.2,0.4,0.2,0.6,0.1l0.7-0.6l0.2-0.6h1v1.3V36c0,0-1.7,0.6-1.9,0.6c-0.1,0.1-0.2,0.6-0.2,0.7s0,0.2,0.2,0.3
		c0,0,0.5,0.4,0.6,0.4l0.5-0.5l0.6,0.1v1.5l-0.6,0.4l-1.8-1.4c-0.2-0.2-0.5-0.1-0.6,0.1l-0.3,0.4c-0.2,0.2-0.2,0.5,0.1,0.6l1.1,1.1
		v0.9l-1.1,0.5c-0.2,0.1-0.2,0.2-0.2,0.4v0.2c0,0.2,0.2,0.5,0.5,0.5h1.4c0.2,0.3,0.2,0.7,0.1,1h-3.2c-0.1-0.1-0.2-0.3-0.2-0.6v-0.2
		c0-0.3,0-0.6,0.1-0.8l0.7-1l0.1-0.2v-0.5c0-0.2-0.1-0.3-0.2-0.4c-0.2-0.1-0.3-0.1-0.5-0.1L28,40.6c-0.2,0.1-0.2,0.2-0.3,0.4
		l-0.1,0.5l-0.6,0.2c-0.2,0.2-0.3,0.3-0.3,0.5v0.2C26.6,42.7,26.8,42.9,27.1,42.9"/>
	<path class="st0" d="M49.8,42.9H49l-0.1,0.3v0.2c0,0.2,0,0.3,0.1,0.5h2.7c0.4-0.2,0.6-1.3,0.6-2.2L51,41.3
		c-0.2-0.1-0.3-0.2-0.3-0.5v-0.5c0-0.2,0.1-0.3,0.2-0.4l1.3-0.9v-0.8L51.6,38c-0.2-0.1-0.2-0.2-0.2-0.4v-1.1c0-0.2,0.1-0.3,0.3-0.4
		l0.4-0.2v-0.8h-1.2l-0.6,1v1.3l0.4,1.3c0.1,0.2,0,0.3-0.1,0.4c-0.1,0.1-0.2,0.2-0.4,0.2h-0.3c-0.2,0-0.4-0.2-0.5-0.4
		c0-0.2-0.2-0.8-0.2-1.1c-0.1-0.2-0.4-0.6-0.6-0.9c-0.2-0.2-0.2-0.4,0-0.6l1.6-1.9c0-0.2,0.1-1,0-1.4c-0.1-0.5-0.5-1.1-0.6-1.4
		l-0.1-0.3v-0.2h-0.1l-1.9,1.2l-0.2,0.1h-0.5v0.7l0.6,0.2c0.2,0.1,0.3,0.2,0.3,0.4v0.5c0,0.2-0.2,0.5-0.5,0.5h-1.6l-0.4,0.6
		c-0.2,0.2-0.4,0.2-0.6,0.1l-0.7-0.6l-0.2-0.6h-1v1.1V36c0,0,1.7,0.6,1.9,0.6c0.1,0.1,0.2,0.6,0.2,0.7s0,0.2-0.2,0.3
		c0,0-0.5,0.4-0.6,0.4l-0.5-0.5l-0.6,0.1v1.5l0.6,0.4l1.9-1.4c0.2-0.2,0.5-0.1,0.6,0.1l0.3,0.4c0.2,0.2,0.2,0.5-0.1,0.6l-1.1,1.1
		v0.9l1.1,0.5c0.2,0.1,0.2,0.2,0.2,0.4v0.2c0,0.2-0.2,0.5-0.5,0.5h-1.4c-0.2,0.3-0.2,0.7-0.1,1h3.2c0.1-0.1,0.2-0.3,0.2-0.6v-0.2
		c0-0.3,0-0.6-0.1-0.8l-0.7-1L47,41.1v-0.5c0-0.2,0.1-0.3,0.2-0.4c0.2-0.1,0.3-0.1,0.5-0.1l1.1,0.5c0.2,0.1,0.2,0.2,0.3,0.4l0.1,0.5
		l0.6,0.2c0.2,0.1,0.3,0.2,0.3,0.5v0.2C50.2,42.7,50,42.9,49.8,42.9"/>
	<path class="st0" d="M124.3,38.7L124.3,38.7c0-1.8,1.3-3.4,3.2-3.4c1.1,0,1.8,0.3,2.4,0.9l-0.5,0.6c-0.5-0.4-1.1-0.7-1.9-0.7
		c-1.5,0-2.4,1.2-2.4,2.7l0,0c0,1.5,1,2.7,2.6,2.7c0.7,0,1.5-0.3,1.9-0.6v-1.6h-1.9v-0.6h2.7v2.6c-0.6,0.6-1.5,1-2.6,1
		C125.6,42,124.3,40.6,124.3,38.7"/>
	<path class="st0" d="M132.6,38.7L132.6,38.7c0-1.8,1.4-3.4,3.3-3.4s3.3,1.5,3.3,3.3l0,0c0,1.8-1.4,3.3-3.3,3.3
		C133.9,42,132.6,40.5,132.6,38.7 M138.5,38.7L138.5,38.7c0-1.5-1.1-2.7-2.6-2.7c-1.5,0-2.5,1.2-2.5,2.7l0,0c0,1.5,1.1,2.7,2.6,2.7
		C137.5,41.4,138.5,40.2,138.5,38.7"/>
	<path class="st0" d="M141.9,35.5h2.8c0.7,0,1.3,0.2,1.7,0.6c0.2,0.2,0.4,0.6,0.4,1.1l0,0c0,0.8-0.5,1.3-1.1,1.5
		c0.7,0.2,1.4,0.6,1.4,1.5l0,0c0,1.1-1,1.8-2.4,1.8h-2.8V35.5z M146,37.2c0-0.6-0.5-1.1-1.5-1.1h-1.9v2.3h1.9
		C145.4,38.4,146,38,146,37.2L146,37.2z M144.6,39h-2v2.3h2.2c1,0,1.6-0.4,1.6-1.1l0,0C146.3,39.4,145.8,39,144.6,39"/>
	<rect x="149.8" y="35.5" class="st0" width="0.7" height="6.5"/>
	<polygon class="st0" points="153.4,35.5 158.1,35.5 158.1,36.1 154.1,36.1 154.1,38.4 157.7,38.4 157.7,39 154.1,39 154.1,41.3 
		158.2,41.3 158.2,42 153.4,42 	"/>
	<path class="st0" d="M160.6,35.5h2.8c0.8,0,1.5,0.2,1.9,0.6c0.3,0.3,0.5,0.7,0.5,1.3l0,0c0,1.1-0.7,1.7-1.8,1.9l2,2.7h-0.9
		l-1.9-2.5h-1.9V42h-0.7V35.5z M163.3,38.8c1,0,1.7-0.5,1.7-1.3l0,0c0-0.8-0.6-1.3-1.6-1.3h-2v2.6C161.4,38.8,163.3,38.8,163.3,38.8
		z"/>
	<polygon class="st0" points="168.4,35.5 169.1,35.5 173.1,40.7 173.1,35.5 173.9,35.5 173.9,42 173.3,42 169.1,36.6 169.1,42 
		168.4,42 	"/>
	<path class="st0" d="M176.5,38.7L176.5,38.7c0-1.8,1.4-3.4,3.3-3.4c1.9,0,3.3,1.5,3.3,3.3l0,0c0,1.8-1.4,3.3-3.3,3.3
		C177.8,42,176.5,40.5,176.5,38.7 M182.4,38.7L182.4,38.7c0-1.5-1.1-2.7-2.6-2.7s-2.5,1.2-2.5,2.7l0,0c0,1.5,1.1,2.7,2.6,2.7
		S182.4,40.2,182.4,38.7"/>
	<path class="st0" d="M189.1,35.5h2.3c2,0,3.5,1.4,3.5,3.2l0,0c0,1.9-1.4,3.2-3.5,3.2h-2.3V35.5z M189.8,36.1v5.1h1.5
		c1.6,0,2.7-1.1,2.7-2.5l0,0c0-1.5-1.1-2.6-2.7-2.6H189.8z"/>
	<polygon class="st0" points="197.2,35.5 201.9,35.5 201.9,36.1 197.9,36.1 197.9,38.4 201.5,38.4 201.5,39 197.9,39 197.9,41.3 
		201.9,41.3 201.9,42 197.2,42 	"/>
	<polygon class="st0" points="207.8,35.5 208.5,35.5 208.5,41.3 212.2,41.3 212.2,42 207.8,42 	"/>
	<path class="st0" d="M216.6,35.4h0.6l2.9,6.6h-0.8l-0.7-1.7h-3.6l-0.7,1.7h-0.7L216.6,35.4z M218.5,39.6l-1.5-3.3l-1.5,3.3H218.5z"
		/>
	<path class="st0" d="M124.2,49.9L124.2,49.9c0-1.9,1.4-3.4,3.4-3.4c1.2,0,1.9,0.4,2.6,1l-0.9,1.1c-0.5-0.5-1-0.7-1.6-0.7
		c-1.1,0-1.9,0.9-1.9,2l0,0c0,1.1,0.7,2,1.9,2c0.7,0,1.2-0.3,1.7-0.7l0.9,0.9c-0.6,0.7-1.4,1.1-2.7,1.1
		C125.6,53.2,124.2,51.8,124.2,49.9"/>
	<rect x="131.3" y="46.6" class="st0" width="1.5" height="6.5"/>
	<path class="st0" d="M134.4,50.3v-3.7h1.5v3.7c0,1.1,0.6,1.6,1.4,1.6c0.9,0,1.4-0.6,1.4-1.5v-3.7h1.5v3.7c0,1.9-1.1,2.9-2.8,2.9
		C135.5,53.2,134.4,52.3,134.4,50.3"/>
	<path class="st0" d="M141.7,46.6h2.5c2,0,3.5,1.4,3.5,3.2l0,0c0,1.9-1.4,3.2-3.5,3.2h-2.5V46.6z M144.2,51.8c1.1,0,1.9-0.8,1.9-1.9
		l0,0c0-1.1-0.8-1.9-1.9-1.9h-1.1v3.9H144.2z"/>
	<path class="st0" d="M150.8,46.6h1.3l2.8,6.6h-1.5l-0.6-1.5h-2.8l-0.6,1.5H148L150.8,46.6z M152.3,50.4l-0.9-2.1l-0.9,2.1H152.3z"
		/>
	<path class="st0" d="M156,46.6h2.5c2,0,3.5,1.4,3.5,3.2l0,0c0,1.9-1.4,3.2-3.5,3.2H156V46.6z M158.5,51.8c1.1,0,1.9-0.8,1.9-1.9
		l0,0c0-1.1-0.8-1.9-1.9-1.9h-1.1v3.9H158.5z"/>
	<path class="st0" d="M166.1,46.6h2.5c2,0,3.5,1.4,3.5,3.2l0,0c0,1.9-1.4,3.2-3.5,3.2h-2.5V46.6z M168.7,51.8c1.1,0,1.9-0.8,1.9-1.9
		l0,0c0-1.1-0.8-1.9-1.9-1.9h-1.1v3.9H168.7z"/>
	<polygon class="st0" points="173.5,46.6 178.3,46.6 178.3,47.9 174.9,47.9 174.9,49.2 177.9,49.2 177.9,50.5 174.9,50.5 
		174.9,51.9 178.4,51.9 178.4,53.1 173.5,53.1 	"/>
	<polygon class="st0" points="182.5,46.6 184.1,46.6 185.8,49.3 187.5,46.6 189,46.6 189,53.1 187.7,53.1 187.7,48.9 185.8,51.6 
		185.8,51.6 183.9,48.9 183.9,53.1 182.5,53.1 	"/>
	<path class="st0" d="M190.7,46.6h4.9v1.3h-3.4v1.3h3.1v1.3h-3.1v1.4h3.5v1.3h-5V46.6z M193.5,44.5l1.2,0.6l-1.2,1.1h-1.1
		L193.5,44.5z"/>
	<polygon class="st0" points="198.9,49.8 196.7,46.6 198.4,46.6 199.8,48.7 201.1,46.6 202.8,46.6 200.6,49.8 202.8,53.1 
		201.2,53.1 199.8,50.9 198.3,53.1 196.6,53.1 	"/>
	<rect x="204" y="46.6" class="st0" width="1.5" height="6.5"/>
	<path class="st0" d="M206.7,49.9L206.7,49.9c0-1.9,1.4-3.4,3.4-3.4c1.2,0,1.9,0.4,2.6,1l-0.9,1.1c-0.5-0.5-1-0.7-1.6-0.7
		c-1.1,0-1.9,0.9-1.9,2l0,0c0,1.1,0.7,2,1.9,2c0.7,0,1.2-0.3,1.7-0.7l0.9,0.9c-0.6,0.7-1.4,1.1-2.7,1.1
		C208.2,53.2,206.7,51.8,206.7,49.9"/>
	<path class="st0" d="M213.4,49.9L213.4,49.9c0-1.9,1.5-3.4,3.5-3.4s3.4,1.5,3.4,3.3l0,0c0,1.9-1.5,3.3-3.5,3.3
		C214.8,53.2,213.4,51.7,213.4,49.9 M218.8,49.9L218.8,49.9c0-1.1-0.8-2-1.9-2c-1.1,0-1.9,0.9-1.9,2l0,0c0,1.1,0.8,2,1.9,2
		C218,51.9,218.8,51,218.8,49.9"/>
	<path class="st0" d="M244.7,38.5c-0.1,0.2-0.2,0.5-0.5,0.6c-0.2,0.2-0.5,0.3-0.7,0.4c-0.3,0.1-0.6,0.2-1,0.2c-0.5,0-1-0.1-1.5-0.2
		c-0.5-0.2-0.9-0.4-1.3-0.8l0.8-1.1c0.3,0.2,0.6,0.4,0.9,0.6c0.3,0.2,0.6,0.2,1.1,0.2c0.3,0,0.6-0.1,0.7-0.2
		c0.2-0.1,0.2-0.2,0.2-0.5l0,0l-0.1-0.2l-0.2-0.2c-0.1-0.1-0.2-0.2-0.4-0.2c-0.2-0.1-0.4-0.2-0.6-0.2c-0.3-0.1-0.6-0.2-0.9-0.2
		c-0.2-0.1-0.5-0.2-0.6-0.4c-0.2-0.2-0.3-0.3-0.4-0.6c-0.1-0.2-0.2-0.5-0.2-0.8l0,0c0-0.3,0.1-0.6,0.2-0.8c0.1-0.2,0.2-0.5,0.5-0.6
		c0.2-0.2,0.4-0.3,0.7-0.4c0.2-0.1,0.6-0.2,0.9-0.2c0.5,0,0.9,0.1,1.3,0.2c0.4,0.2,0.8,0.3,1.1,0.6l-0.7,1.1
		c-0.3-0.2-0.6-0.3-0.9-0.5c-0.2-0.1-0.6-0.2-0.8-0.2s-0.5,0.1-0.6,0.2c-0.2,0.1-0.2,0.2-0.2,0.4l0,0l0.1,0.2l0.2,0.2
		c0.1,0.1,0.2,0.2,0.4,0.2c0.2,0.1,0.4,0.2,0.7,0.2c0.3,0.1,0.6,0.2,0.9,0.3c0.2,0.1,0.5,0.2,0.6,0.4c0.2,0.2,0.3,0.3,0.4,0.6
		c0.1,0.2,0.2,0.5,0.2,0.7l0,0C244.9,38,244.8,38.2,244.7,38.5"/>
	<polygon class="st0" points="246.3,39.6 246.3,33 251.2,33 251.2,34.3 247.7,34.3 247.7,35.6 250.8,35.6 250.8,36.9 247.7,36.9 
		247.7,38.3 251.2,38.3 251.2,39.6 	"/>
	<path class="st0" d="M257.8,39c-0.2,0.2-0.4,0.2-0.6,0.4c-0.2,0.1-0.5,0.2-0.7,0.2c-0.2,0.1-0.6,0.1-0.9,0.1
		c-0.5,0-0.9-0.1-1.3-0.2c-0.4-0.2-0.7-0.4-1.1-0.7s-0.6-0.6-0.7-1.1c-0.2-0.4-0.2-0.8-0.2-1.3l0,0c0-0.5,0.1-0.9,0.2-1.3
		c0.2-0.4,0.4-0.7,0.7-1.1c0.3-0.3,0.6-0.6,1.1-0.7c0.4-0.2,0.9-0.2,1.4-0.2c0.3,0,0.6,0,0.8,0.1c0.2,0.1,0.5,0.1,0.6,0.2
		c0.2,0.1,0.4,0.2,0.6,0.3c0.2,0.2,0.3,0.2,0.5,0.4l-0.9,1.1c-0.2-0.2-0.5-0.4-0.8-0.6c-0.2-0.2-0.6-0.2-0.9-0.2
		c-0.2,0-0.6,0.1-0.7,0.2c-0.2,0.1-0.4,0.2-0.6,0.4c-0.2,0.2-0.3,0.4-0.4,0.6c-0.1,0.2-0.2,0.5-0.2,0.8l0,0c0,0.2,0.1,0.6,0.2,0.8
		c0.1,0.2,0.2,0.5,0.4,0.6c0.2,0.2,0.4,0.3,0.6,0.4c0.2,0.1,0.5,0.2,0.7,0.2c0.4,0,0.6-0.1,1-0.2c0.2-0.2,0.5-0.3,0.7-0.6l0.9,0.9
		C258.2,38.7,258,38.9,257.8,39"/>
	<polygon class="st0" points="262.4,34.3 262.4,39.6 261,39.6 261,34.3 259,34.3 259,33 264.4,33 264.4,34.3 	"/>
	<polygon class="st0" points="265.5,39.6 265.5,33 270.5,33 270.5,34.3 267,34.3 267,35.6 270,35.6 270,36.9 267,36.9 267,38.3 
		270.5,38.3 270.5,39.6 	"/>
	<rect x="271.7" y="33" class="st0" width="1.5" height="6.6"/>
	<text transform="matrix(1.02 0 0 1 239.7201 47.268)" class="st0 st1 st2">DIRECCIÓN GENERAL DE PLANEACIÓN</text>
	<text transform="matrix(1.02 0 0 1 239.7201 55.3851)" class="st0 st1 st2">Y EVALUACIÓN ESTRATÉGICA</text>
	<text transform="matrix(1.02 0 0 1 427.9926 47.268)" class="st0 st1 st2">INSTITUTO</text>
	<text transform="matrix(1.02 0 0 1 427.9926 55.3851)" class="st0 st1 st2">ROSARIO CASTELLANOS</text>
</g>
<g class="st3">
	<g class="st4">
		<path class="st5" d="M92.7,19.1c1.9,0,3.3-1.5,3.3-3.2s-1.5-3.2-3.3-3.2s-3.3,1.5-3.3,3.2S90.8,19.1,92.7,19.1 M92.7,14.1
			c1,0,1.7,0.8,1.7,1.8s-0.8,1.8-1.7,1.8c-1,0-1.7-0.8-1.7-1.8C90.9,14.8,91.7,14.1,92.7,14.1"/>
		<path class="st5" d="M92.7,12.6c1.9,0,3.3-1.5,3.3-3.2s-1.5-3.2-3.3-3.2s-3.3,1.5-3.3,3.2S90.8,12.6,92.7,12.6 M92.7,7.6
			c1,0,1.7,0.8,1.7,1.8s-0.8,1.8-1.7,1.8c-1,0-1.7-0.8-1.7-1.8C90.9,8.3,91.7,7.6,92.7,7.6"/>
		<path class="st5" d="M92.7,6.1c1.9,0,3.3-1.5,3.3-3.2s-1.5-3.2-3.3-3.2s-3.3,1.5-3.3,3.2S90.8,6.1,92.7,6.1 M92.7,1.1
			c1,0,1.7,0.8,1.7,1.8s-0.8,1.8-1.7,1.8c-1,0-1.7-0.8-1.7-1.8C90.9,1.8,91.7,1.1,92.7,1.1"/>
	</g>
	<g class="st4">
		<path class="st5" d="M19.9,38.9c0-1.9-1.5-3.3-3.2-3.3s-3.2,1.5-3.2,3.3c0,1.9,1.5,3.3,3.2,3.3S19.9,40.7,19.9,38.9 M14.8,38.9
			c0-1,0.8-1.7,1.8-1.7s1.8,0.8,1.8,1.7c0,1-0.8,1.7-1.8,1.7C15.6,40.6,14.8,39.8,14.8,38.9"/>
		<path class="st5" d="M13.4,38.9c0-1.9-1.5-3.3-3.2-3.3S6.9,37,6.9,38.9s1.5,3.3,3.2,3.3S13.4,40.7,13.4,38.9 M8.3,38.9
			c0-1,0.8-1.7,1.8-1.7s1.8,0.8,1.8,1.7c0,1-0.8,1.7-1.8,1.7C9.1,40.6,8.3,39.8,8.3,38.9"/>
		<path class="st5" d="M6.9,38.9c0-1.9-1.5-3.3-3.2-3.3S0.4,37,0.4,38.9c0,1.9,1.5,3.3,3.2,3.3S6.9,40.7,6.9,38.9 M1.8,38.9
			c0-1,0.8-1.7,1.8-1.7s1.8,0.8,1.8,1.7c0,1-0.8,1.7-1.8,1.7C2.6,40.6,1.8,39.8,1.8,38.9"/>
	</g>
	<g class="st4">
		<path class="st5" d="M532.9,38.9c0-1.9-1.5-3.3-3.2-3.3s-3.2,1.5-3.2,3.3c0,1.9,1.5,3.3,3.2,3.3S532.9,40.7,532.9,38.9
			 M527.8,38.9c0-1,0.8-1.7,1.8-1.7c1,0,1.8,0.8,1.8,1.7c0,1-0.8,1.7-1.8,1.7C528.6,40.6,527.8,39.8,527.8,38.9"/>
		<path class="st5" d="M526.4,38.9c0-1.9-1.5-3.3-3.2-3.3c-1.8,0-3.2,1.5-3.2,3.3s1.5,3.3,3.2,3.3C524.9,42.2,526.4,40.7,526.4,38.9
			 M521.3,38.9c0-1,0.8-1.7,1.8-1.7c1,0,1.8,0.8,1.8,1.7c0,1-0.8,1.7-1.8,1.7C522.1,40.6,521.3,39.8,521.3,38.9"/>
		<path class="st5" d="M519.9,38.9c0-1.9-1.5-3.3-3.2-3.3s-3.2,1.5-3.2,3.3c0,1.9,1.5,3.3,3.2,3.3S519.9,40.7,519.9,38.9
			 M514.8,38.9c0-1,0.8-1.7,1.8-1.7s1.8,0.8,1.8,1.7c0,1-0.8,1.7-1.8,1.7C515.6,40.6,514.8,39.8,514.8,38.9"/>
	</g>
	<g class="st4">
		<path class="st5" d="M92.7,88.7c1.9,0,3.3-1.5,3.3-3.2s-1.5-3.2-3.3-3.2s-3.3,1.5-3.3,3.2S90.8,88.7,92.7,88.7 M92.7,83.7
			c1,0,1.7,0.8,1.7,1.8s-0.8,1.8-1.7,1.8c-1,0-1.7-0.8-1.7-1.8C90.9,84.4,91.7,83.7,92.7,83.7"/>
		<path class="st5" d="M92.7,82.2c1.9,0,3.3-1.5,3.3-3.2s-1.5-3.2-3.3-3.2s-3.3,1.5-3.3,3.2S90.8,82.2,92.7,82.2 M92.7,77.2
			c1,0,1.7,0.8,1.7,1.8c0,1-0.8,1.8-1.7,1.8c-1,0-1.7-0.8-1.7-1.8C90.9,77.9,91.7,77.2,92.7,77.2"/>
		<path class="st5" d="M92.7,75.7c1.9,0,3.3-1.5,3.3-3.2s-1.5-3.2-3.3-3.2s-3.3,1.5-3.3,3.2S90.8,75.7,92.7,75.7 M92.7,70.7
			c1,0,1.7,0.8,1.7,1.8c0,1-0.8,1.8-1.7,1.8c-1,0-1.7-0.8-1.7-1.8C90.9,71.4,91.7,70.7,92.7,70.7"/>
	</g>
</g>
</svg>
