<?xml version="1.0" encoding="utf-8"?>
<!-- Generator: Adobe Illustrator 22.1.0, SVG Export Plug-In . SVG Version: 6.00 Build 0)  -->
<svg version="1.1" id="Capa_1" xmlns="http://www.w3.org/2000/svg" xmlns:xlink="http://www.w3.org/1999/xlink" x="0px" y="0px"
	 viewBox="0 0 430.9 104.6" style="enable-background:new 0 0 430.9 104.6;" xml:space="preserve">
<style type="text/css">
	.st0{enable-background:new    ;}
	.st1{fill:#676868;}
	.st2{font-family:'OpenSans-BoldItalic';}
	.st3{font-size:8px;}
	.st4{fill:#58708C;}
	.st5{fill:#C1D4F7;}
</style>
<title>u3_p3_esquema15</title>
<text transform="matrix(1 0 0 1 7.5 25.5)" class="st0"><tspan x="0" y="0" class="st1 st2 st3">Experiencia y capacidad</tspan><tspan x="0" y="9.6" class="st1 st2 st3">de los desarrolladores</tspan></text>
<text transform="matrix(1 0 0 1 123.0702 25.5)" class="st1 st2 st3">Muy baja</text>
<text transform="matrix(1 0 0 1 197.119 25.5)" class="st1 st2 st3">Baja</text>
<text transform="matrix(1 0 0 1 258.9496 25.5)" class="st1 st2 st3">Media</text>
<text transform="matrix(1 0 0 1 328.2603 25.5)" class="st1 st2 st3">Alta</text>
<text transform="matrix(1 0 0 1 384.2018 25.5)" class="st1 st2 st3">Muy alta</text>
<text transform="matrix(1 0 0 1 7.5 60.2217)" class="st0"><tspan x="0" y="0" class="st1 st2 st3">Madurez y capacidad</tspan><tspan x="0" y="9.6" class="st1 st2 st3">de las herramientas CASE</tspan></text>
<text transform="matrix(1 0 0 1 123.0702 60.2217)" class="st1 st2 st3">Muy baja</text>
<text transform="matrix(1 0 0 1 197.119 60.2217)" class="st1 st2 st3">Baja</text>
<text transform="matrix(1 0 0 1 258.9496 60.2217)" class="st1 st2 st3">Media</text>
<text transform="matrix(1 0 0 1 328.2603 60.2217)" class="st1 st2 st3">Alta</text>
<text transform="matrix(1 0 0 1 384.2018 60.2217)" class="st1 st2 st3">Muy alta</text>
<text transform="matrix(1 0 0 1 7.5 99.835)" class="st1 st2 st3">PROD (NOP/mes)</text>
<text transform="matrix(1 0 0 1 123.0702 99.835)" class="st1 st2 st3">4</text>
<text transform="matrix(1 0 0 1 197.119 99.835)" class="st1 st2 st3">7</text>
<text transform="matrix(1 0 0 1 258.9496 99.835)" class="st1 st2 st3">13</text>
<text transform="matrix(1 0 0 1 328.2603 99.835)" class="st1 st2 st3">25</text>
<text transform="matrix(1 0 0 1 384.2018 99.835)" class="st1 st2 st3">50</text>
<rect y="2" class="st4" width="427.5" height="5"/>
<rect y="42" class="st5" width="427.5" height="2"/>
<rect y="85" class="st5" width="427.5" height="2"/>
</svg>
