<svg id="Capa_1" data-name="Capa 1" xmlns="http://www.w3.org/2000/svg" viewBox="0 0 431 267"><defs><style>.cls-1{fill:#58708c;}.cls-2{fill:#9ccde4;}.cls-3{font-size:7.4px;font-family:OpenSans, Open Sans;}.cls-3,.cls-5{fill:#2a435b;}.cls-4{fill:none;stroke:#58708c;stroke-miterlimit:10;stroke-width:0.75px;}.cls-5{font-size:6px;font-family:OpenSans-SemiboldItalic, Open Sans;font-weight:700;font-style:italic;}</style></defs><title>u3_p3_esquema16</title><rect class="cls-1" x="7.39" y="9.63" width="90.09" height="38.87"/><rect class="cls-2" x="4" y="5" width="90.09" height="38.87"/><text class="cls-3" transform="translate(16.4 24.13)">Número de puntos<tspan x="10.19" y="8.89">de aplicación</tspan></text><rect class="cls-1" x="155.48" y="9.63" width="90.09" height="38.87"/><rect class="cls-2" x="152.09" y="5" width="90.09" height="38.87"/><text class="cls-3" transform="translate(160.25 24.13)">Nivel de construcción<tspan x="13.58" y="8.89">de prototipos</tspan></text><rect class="cls-1" x="303.8" y="10.85" width="125.2" height="49.15"/><rect class="cls-2" x="299.09" y="5" width="125.2" height="49.15"/><text class="cls-3" transform="translate(304.26 24.13)">Desarrollo de prototipos utilizado<tspan x="11.04" y="8.89" xml:space="preserve"> scripts, lenguajes basados </tspan><tspan x="39.55" y="17.77">en BD, etc.</tspan></text><line class="cls-4" x1="102.53" y1="24" x2="152" y2="24"/><path class="cls-1" d="M98,24a22.65,22.65,0,0,1,6.41,3.57L103.12,24l1.29-3.57A22.65,22.65,0,0,1,98,24Z"/><line class="cls-4" x1="294.47" y1="24.5" x2="245" y2="24.5"/><path class="cls-1" d="M299,24.5a22.65,22.65,0,0,1-6.41-3.57l1.29,3.57-1.29,3.57A22.65,22.65,0,0,1,299,24.5Z"/><text class="cls-5" transform="translate(111.71 20.6)">Basado en</text><text class="cls-5" transform="translate(254.12 20.6)">Usado para</text><rect class="cls-1" x="7.39" y="76.63" width="90.09" height="38.87"/><rect class="cls-2" x="4" y="72" width="90.09" height="38.87"/><text class="cls-3" transform="translate(16.4 91.13)">Número de puntos<tspan x="14.41" y="8.89">de función</tspan></text><rect class="cls-1" x="155.48" y="76.63" width="90.09" height="38.87"/><rect class="cls-2" x="152.09" y="72" width="90.09" height="38.87"/><text class="cls-3" transform="translate(170.79 91.13)">Nivel de diseño<tspan x="16.58" y="8.89">inicial</tspan></text><rect class="cls-1" x="303.8" y="77.85" width="125.2" height="49.15"/><rect class="cls-2" x="299.09" y="72" width="125.2" height="49.15"/><text class="cls-3" transform="translate(310.5 91.13)">Estimación inicial del esfuerzo<tspan x="3.26" y="8.89">basado en requerimientos y</tspan><tspan x="18.33" y="17.77">opciones de diseño</tspan></text><line class="cls-4" x1="102.53" y1="91" x2="152" y2="91"/><path class="cls-1" d="M98,91a22.65,22.65,0,0,1,6.41,3.57L103.12,91l1.29-3.57A22.65,22.65,0,0,1,98,91Z"/><line class="cls-4" x1="294.47" y1="91.5" x2="245" y2="91.5"/><path class="cls-1" d="M299,91.5a22.65,22.65,0,0,1-6.41-3.57l1.29,3.57-1.29,3.57A22.65,22.65,0,0,1,299,91.5Z"/><text class="cls-5" transform="translate(111.71 87.6)">Basado en</text><text class="cls-5" transform="translate(254.12 87.6)">Usado para</text><rect class="cls-1" x="7.39" y="143.63" width="90.09" height="38.87"/><rect class="cls-2" x="4" y="139" width="90.09" height="38.87"/><text class="cls-3" transform="translate(12.21 152.13)">Número de líneas de <tspan x="4.63" y="8.89">código reutilizadas</tspan><tspan x="15.6" y="17.77">o generadas</tspan></text><rect class="cls-1" x="155.48" y="143.63" width="90.09" height="38.87"/><rect class="cls-2" x="152.09" y="139" width="90.09" height="38.87"/><text class="cls-3" transform="translate(183.31 158.13)">Nivel de<tspan x="-7.07" y="8.89">reutilización</tspan></text><rect class="cls-1" x="303.8" y="144.85" width="125.2" height="49.15"/><rect class="cls-2" x="299.09" y="139" width="125.2" height="49.15"/><text class="cls-3" transform="translate(323.78 153.13)">Esfuerzo para integrar<tspan x="-11.22" y="8.89">componentes reutilizables o </tspan><tspan x="8.51" y="17.77">código generado </tspan><tspan x="6.85" y="26.66">automáticamente </tspan></text><line class="cls-4" x1="102.53" y1="158" x2="152" y2="158"/><path class="cls-1" d="M98,158a22.65,22.65,0,0,1,6.41,3.57L103.12,158l1.29-3.57A22.65,22.65,0,0,1,98,158Z"/><line class="cls-4" x1="294.47" y1="158.5" x2="245" y2="158.5"/><path class="cls-1" d="M299,158.5a22.65,22.65,0,0,1-6.41-3.57l1.29,3.57-1.29,3.57A22.65,22.65,0,0,1,299,158.5Z"/><text class="cls-5" transform="translate(111.71 154.6)">Basado en</text><text class="cls-5" transform="translate(254.12 154.6)">Usado para</text><rect class="cls-1" x="7.39" y="210.63" width="90.09" height="38.87"/><rect class="cls-2" x="4" y="206" width="90.09" height="38.87"/><text class="cls-3" transform="translate(18.48 224.13)">Número de líneas<tspan x="1.65" y="8.89">de código fuente</tspan></text><rect class="cls-1" x="155.48" y="210.63" width="90.09" height="38.87"/><rect class="cls-2" x="152.09" y="206" width="90.09" height="38.87"/><text class="cls-3" transform="translate(183.31 225.13)">Nivel de<tspan x="-15.02" y="8.89">postarquitectura</tspan></text><rect class="cls-1" x="303.8" y="211.85" width="125.2" height="49.15"/><rect class="cls-2" x="299.09" y="206" width="125.2" height="49.15"/><text class="cls-3" transform="translate(309.88 228.13)">Esfuerzo de desarrollo basado<tspan x="9.17" y="8.89">en el diseños del sistema</tspan></text><line class="cls-4" x1="102.53" y1="225" x2="152" y2="225"/><path class="cls-1" d="M98,225a22.65,22.65,0,0,1,6.41,3.57L103.12,225l1.29-3.57A22.65,22.65,0,0,1,98,225Z"/><line class="cls-4" x1="294.47" y1="225.5" x2="245" y2="225.5"/><path class="cls-1" d="M299,225.5a22.65,22.65,0,0,1-6.41-3.57l1.29,3.57-1.29,3.57A22.65,22.65,0,0,1,299,225.5Z"/><text class="cls-5" transform="translate(111.71 221.6)">Basado en</text><text class="cls-5" transform="translate(254.12 221.6)">Usado para</text></svg>