<svg id="Capa_1" data-name="Capa 1" xmlns="http://www.w3.org/2000/svg" viewBox="0 0 269 120.33"><defs><style>.cls-1{fill:#ccc;}.cls-2{fill:#999;}.cls-3{fill:#ea7e6c;}.cls-4{fill:#58708c;}.cls-5{fill:#6eb76f;}.cls-6{fill:#e6e6e6;}.cls-7{fill:#bbbcbb;}.cls-10,.cls-8,.cls-9{isolation:isolate;}.cls-9{font-size:8.3px;fill:#fff;font-family:OpenSans-Bold, Open Sans;}.cls-10,.cls-9{font-weight:700;}.cls-10{font-size:7px;fill:#5d5d5b;font-family:OpenSans-BoldItalic, Open Sans;font-style:italic;}</style></defs><title>u3_p1_organizador_grafico</title><circle class="cls-1" cx="59.85" cy="60.85" r="56.36"/><circle class="cls-2" cx="59.85" cy="60.85" r="37.29"/><path class="cls-3" d="M105.12,63.06A44.49,44.49,0,0,1,89.36,95.29c1.19.9,2.39,1.79,3.56,2.69a49.44,49.44,0,0,0,5.49-5.72,50.11,50.11,0,0,0,11-29.2Z"/><path class="cls-4" d="M91.9,28.72c.92-1.12,1.87-2.2,2.87-3.24A50.58,50.58,0,0,0,60.83,11.19a2.15,2.15,0,0,0-2.2,2.1v.09a2.14,2.14,0,0,0,2.07,2.13A46,46,0,0,1,91.9,28.72Z"/><path class="cls-5" d="M102.61,35.42a49,49,0,0,0-6.06-8.1,37.14,37.14,0,0,0-2.88,3.25c.32.36.65.71,1,1.07a45.32,45.32,0,0,1,10.56,28.82h4.31A49.15,49.15,0,0,0,102.61,35.42Z"/><path class="cls-6" d="M128.61,7.23H261.82a4.48,4.48,0,0,1,4.48,4.48h0V32.84a4.49,4.49,0,0,1-4.48,4.48H128.61a6,6,0,0,1-6-6V13.19a6,6,0,0,1,6-6Z"/><path class="cls-4" d="M128.61,7.23h28V37.29h-28a6,6,0,0,1-6-6V13.19a6,6,0,0,1,6-6Z"/><path class="cls-3" d="M102.52,62.92A4.48,4.48,0,1,0,107,58.44,4.49,4.49,0,0,0,102.52,62.92Z"/><circle class="cls-5" cx="93.56" cy="28.45" r="4.48"/><polygon class="cls-7" points="156.61 7.22 156.61 37.29 175.25 37.29 156.61 7.22"/><path class="cls-6" d="M128.61,43.43H261.82a4.48,4.48,0,0,1,4.48,4.48h0V69a4.49,4.49,0,0,1-4.48,4.48H128.61a6,6,0,0,1-6-6V49.39A6,6,0,0,1,128.61,43.43Z"/><path class="cls-5" d="M128.61,43.43h28V73.49h-28a6,6,0,0,1-6-6V49.39A6,6,0,0,1,128.61,43.43Z"/><polygon class="cls-7" points="156.61 43.43 156.61 73.49 175.25 73.49 156.61 43.43"/><path class="cls-6" d="M128.61,79.63H261.82a4.48,4.48,0,0,1,4.48,4.48h0v21.1a4.49,4.49,0,0,1-4.48,4.48H128.61a6,6,0,0,1-6-6V85.59A6,6,0,0,1,128.61,79.63Z"/><path class="cls-3" d="M128.61,79.63h28v30.06h-28a6,6,0,0,1-6-6V85.59A6,6,0,0,1,128.61,79.63Z"/><polygon class="cls-7" points="156.61 79.63 156.61 109.69 175.25 109.69 156.61 79.63"/><g class="cls-8"><text class="cls-9" transform="translate(36.9 47.83)">Estimación<tspan x="-1.2" y="9.96">de esfuerzo</tspan><tspan x="2" y="19.92">y costo de</tspan><tspan x="0.57" y="29.88">desarrollo </tspan></text></g><g class="cls-8"><text class="cls-10" transform="translate(175.25 20.04)">Puntos de función</text></g><g class="cls-8"><text class="cls-10" transform="translate(175.25 56.71)">Gestión de los costos<tspan x="0" y="8.4">de proyectos</tspan></text></g><g class="cls-8"><text class="cls-10" transform="translate(175.25 93.37)">COnstructive COst MOdel</text></g></svg>