<svg xmlns="http://www.w3.org/2000/svg" xmlns:xlink="http://www.w3.org/1999/xlink" viewBox="0 0 171 54"><defs><style>.cls-1{isolation:isolate;}.cls-2{fill:#58708c;}.cls-3{fill:#f26e50;}.cls-4{mix-blend-mode:multiply;fill:url(#radial-gradient);}.cls-5,.cls-6{fill:#fff;}.cls-6{font-size:9.02px;font-family:OpenSans, Open Sans;}.cls-7,.cls-8{fill:none;stroke:#58708c;stroke-miterlimit:10;}.cls-8{stroke-dasharray:0.94 0.94;}</style><radialGradient id="radial-gradient" cx="28.91" cy="28.75" r="17.7" gradientTransform="translate(50.17 -6.04) rotate(76.59)" gradientUnits="userSpaceOnUse"><stop offset="0"/><stop offset="1" stop-color="#fff"/></radialGradient></defs><title>u3_p2_Ampliar_imagen</title><g class="cls-1"><g id="Capa_1" data-name="Capa 1"><path class="cls-2" d="M68.75,51.45H26.47A24.11,24.11,0,1,1,48.61,18.69,103.1,103.1,0,0,0,63.3,44.36Z"/><path class="cls-3" d="M169,22.62h0a19.19,19.19,0,0,1-19.19,19.19H77.28l-.89,0A22.34,22.34,0,0,1,58,30.47a92.32,92.32,0,0,1-6.25-13A27.51,27.51,0,0,0,39.52,3.42H149.81A19.2,19.2,0,0,1,169,22.62Z"/><circle class="cls-4" cx="28.91" cy="28.75" r="17.7" transform="translate(-5.76 50.2) rotate(-76.59)"/><circle class="cls-5" cx="25.85" cy="26.94" r="17.07"/><text class="cls-6" transform="translate(64.03 20.73)">Haz clic en la imagen<tspan x="13.23" y="10.82">para ampliarla</tspan></text><polyline class="cls-7" points="28.35 21 32.35 21 32.35 25"/><rect class="cls-7" x="17.5" y="25.5" width="10" height="10"/><polyline class="cls-7" points="34.5 35 34.5 35.5 34 35.5"/><line class="cls-8" x1="33.06" y1="35.5" x2="18.47" y2="35.5"/><polyline class="cls-7" points="18 35.5 17.5 35.5 17.5 35"/><line class="cls-8" x1="17.5" y1="34.06" x2="17.5" y2="19.47"/><polyline class="cls-7" points="17.5 19 17.5 18.5 18 18.5"/><line class="cls-8" x1="18.94" y1="18.5" x2="33.53" y2="18.5"/><polyline class="cls-7" points="34 18.5 34.5 18.5 34.5 19"/><line class="cls-8" x1="34.5" y1="19.94" x2="34.5" y2="34.53"/></g></g></svg>