<svg id="Capa_1" data-name="Capa 1" xmlns="http://www.w3.org/2000/svg" viewBox="0 0 246 100"><defs><style>.cls-1,.cls-2{fill:none;stroke:#676868;stroke-miterlimit:10;}.cls-2{stroke-width:2px;}.cls-3{font-size:8px;fill:#676868;font-family:OpenSans, Open Sans;}</style></defs><title>u3_p3_esquema14</title><rect class="cls-1" x="5.5" y="4.5" width="237" height="92"/><line class="cls-1" x1="80.5" y1="4.5" x2="80.5" y2="96"/><line class="cls-1" x1="242.5" y1="23.25" x2="80.75" y2="23.25"/><line class="cls-1" x1="242.5" y1="57.25" x2="6" y2="57.25"/><line class="cls-2" x1="242.5" y1="39.25" x2="6" y2="39.25"/><line class="cls-1" x1="132.5" y1="23.5" x2="132.5" y2="96"/><line class="cls-1" x1="185.5" y1="23.5" x2="185.5" y2="96"/><line class="cls-2" x1="242" y1="75.5" x2="5" y2="75.5"/><text class="cls-3" transform="translate(15 23.25)">Tipo de objeto</text><text class="cls-3" transform="translate(27 51.25)">Pantalla</text><text class="cls-3" transform="translate(105 51.25)">1<tspan x="0" y="18">2</tspan></text><text class="cls-3" transform="translate(159 51.25)">2<tspan x="0" y="18">5</tspan></text><text class="cls-3" transform="translate(212 51.25)">3<tspan x="0" y="18">a</tspan><tspan x="0" y="36">10</tspan></text><text class="cls-3" transform="translate(27 67.25)">Informe</text><text class="cls-3" transform="translate(120 16.25)">Peso de la Complejidad</text><text class="cls-3" transform="translate(93 33.25)">Básico</text><text class="cls-3" transform="translate(139 33.25)">Intermedio</text><text class="cls-3" transform="translate(195 33.25)">Avanzado</text><text class="cls-3" transform="translate(10 90.33)">Componente L3G</text></svg>