<?xml version="1.0" encoding="utf-8"?>
<!-- Generator: Adobe Illustrator 22.1.0, SVG Export Plug-In . SVG Version: 6.00 Build 0)  -->
<svg version="1.1" id="Capa_1" xmlns="http://www.w3.org/2000/svg" xmlns:xlink="http://www.w3.org/1999/xlink" x="0px" y="0px"
	 viewBox="0 0 236.3 234.9" style="enable-background:new 0 0 236.3 234.9;" xml:space="preserve">
<style type="text/css">
	.st0{fill:#F26E50;}
</style>
<g>
	<path class="st0" d="M158.1,178H74.7c0,0,0-17.2,0-39h-7.1v58.6h97.7v-24.5H158C158.1,176.2,158.1,178,158.1,178z M116.8,192.2
		c-2.8,0-5-2.2-5-5s2.2-5,5-5s5,2.2,5,5C121.7,190,119.5,192.2,116.8,192.2z"/>
	<path class="st0" d="M74.8,50.6c0,0,37.3,0,62,0l0,0c0-1.6,1.3-2.8,2.8-2.8h25.8v-4.4H67.7v45.8h7.1C74.8,67.6,74.8,50.6,74.8,50.6
		z"/>
	<path class="st0" d="M169.2,53.4h-3.8h-7.3h-15.7v19.9c-0.9,0.5-1.8,1-2.8,1.6c-0.9,0.5-1.8,1-2.8,1.6c-11,6.2-28.3,15.9-40.4,22.8
		c-1,0.5-1.9,1.1-2.8,1.6c-1,0.6-1.9,1.1-2.8,1.6v-7.6h-16h-7.1h-3.8h-3.8H44.9v38.6h15.2h3.8h3.8h7.1h15.9V122
		c0.9,0.5,1.8,1,2.8,1.6c0.9,0.5,1.8,1,2.8,1.6c12.2,6.9,29.4,16.5,40.4,22.8c1,0.6,1.9,1.1,2.8,1.6c1,0.6,2,1.1,2.8,1.6v16.5H158
		h7.3h3.8h3.8h15.2v-38.6H173h-3.8h-3.8h-7.3h-15.7v18.4c-0.9-0.5-1.8-1-2.8-1.6c-0.9-0.5-1.8-1-2.8-1.6
		c-11.6-6.5-28.8-16.2-40.4-22.8c-1-0.6-1.9-1.1-2.8-1.6c-1-0.6-1.9-1.1-2.8-1.6V106c0.9-0.5,1.8-1,2.8-1.6c0.9-0.5,1.8-1,2.8-1.6
		c11.7-6.6,28.9-16.3,40.4-22.8c1-0.6,1.9-1.1,2.8-1.6c1-0.6,1.9-1.1,2.8-1.6v15h15.7h7.3h3.8h3.8h15.2V53.4H173H169.2z"/>
	<path class="st0" d="M158.1,123.2h7.3V97.6h-7.3C158.1,105.9,158.1,114.7,158.1,123.2z"/>
	<path class="st0" d="M118.2,1.3C53.9,1.3,2,53.2,2,117.4c0,64.3,51.9,116.1,116.1,116.1c64.3,0,116.1-51.9,116.1-116.1
		C234.3,53.2,182.4,1.3,118.2,1.3z M193.8,94.8c0,1.6-1.3,2.8-2.8,2.8h-18v25.6h18c1.6,0,2.8,1.3,2.8,2.8v44.2
		c0,1.6-1.3,2.8-2.8,2.8h-18v28.3c0,2.1-1.7,3.8-3.8,3.8H63.9c-2.1,0-3.8-1.7-3.8-3.8V139h-18c-1.6,0-2.8-1.3-2.8-2.8V91.9
		c0-1.6,1.3-2.8,2.8-2.8h18V39.6c0-2.1,1.7-3.8,3.8-3.8h105.3c2.1,0,3.8,1.7,3.8,3.8v8.2h18c1.6,0,2.8,1.3,2.8,2.8L193.8,94.8
		L193.8,94.8z"/>
</g>
</svg>
