<svg xmlns="http://www.w3.org/2000/svg" viewBox="0 0 462.52 199.39"><defs><style>.cls-1{isolation:isolate;}.cls-2{fill:#ffc500;}.cls-3{fill:#c95947;}.cls-4{fill:#cecece;mix-blend-mode:multiply;}.cls-5{fill:#eaeaea;}.cls-6{fill:#dd6850;}.cls-7{font-size:7px;}.cls-11,.cls-7{fill:#676868;font-family:OpenSans, Open Sans;}.cls-8{font-size:8.58px;fill:#fdfdfd;font-family:OpenSans-Semibold, Open Sans;font-weight:600;}.cls-9{fill:#a7444b;}.cls-10{fill:#bf2a61;}.cls-11{font-size:6.5px;}.cls-12{fill:#ec9a4e;}.cls-13{fill:#b09061;}.cls-14{fill:#827f33;}</style></defs><g class="cls-1"><g id="Capa_1" data-name="Capa 1"><path class="cls-2" d="M25.92,34.28H20.84a9.35,9.35,0,0,0,0,18.69h5.08Z"/><path class="cls-3" d="M25.92,34.28H20.84a9.35,9.35,0,0,0,0,18.69h5.08Z"/><path class="cls-4" d="M135.85,53.15l-.94-28.48A11.09,11.09,0,0,0,123.39,14l-92.95,3A11.1,11.1,0,0,0,19.65,28.47l1.74,53A11.09,11.09,0,0,0,32.91,92.1l92.94-3a11.12,11.12,0,0,0,10.8-11.41l-.2-6C136.34,68.13,136,56.66,135.85,53.15Z"/><path class="cls-5" d="M136.63,23.58a11,11,0,0,0-11-11h-92a11,11,0,0,0-11,11v53a11,11,0,0,0,11,11h92a11,11,0,0,0,11-11Z"/><path class="cls-4" d="M11.56,44.73a9.4,9.4,0,0,1,2.67-5.5,9.29,9.29,0,0,1,6.61-2.74H132.75a9.34,9.34,0,0,0,9.34-9.34A10.18,10.18,0,0,0,142,26a9.36,9.36,0,0,0-9.28-8.25H20.84a9.35,9.35,0,0,0-9.34,9.36V43.62Z"/><path class="cls-6" d="M142.09,24.94a9.35,9.35,0,0,1-9.34,9.34H20.84a9.35,9.35,0,0,0-9.34,9.34V24.94a9.35,9.35,0,0,1,9.34-9.36H132.75A9.35,9.35,0,0,1,142.09,24.94Z"/><text class="cls-7" transform="translate(27.39 45.92)">El principio del bien: Haz el <tspan x="0" y="8.4">bien y evita el mal.</tspan></text><text class="cls-8" transform="translate(72.95 28.69)">a)</text><path class="cls-2" d="M174.92,34.28h-5.08a9.35,9.35,0,0,0,0,18.69h5.08Z"/><path class="cls-9" d="M174.92,34.28h-5.08a9.35,9.35,0,0,0,0,18.69h5.08Z"/><path class="cls-4" d="M284.85,53.15l-.94-28.48A11.09,11.09,0,0,0,272.39,14l-92.95,3a11.1,11.1,0,0,0-10.79,11.41l1.74,53A11.09,11.09,0,0,0,181.91,92.1l92.94-3a11.12,11.12,0,0,0,10.8-11.41l-.2-6C285.34,68.13,285,56.66,284.85,53.15Z"/><path class="cls-5" d="M285.63,23.58a11,11,0,0,0-11-11h-92a11,11,0,0,0-11,11v53a11,11,0,0,0,11,11h92a11,11,0,0,0,11-11Z"/><path class="cls-4" d="M160.56,44.73a9.4,9.4,0,0,1,2.67-5.5,9.29,9.29,0,0,1,6.61-2.74H281.75a9.34,9.34,0,0,0,9.34-9.34A10.18,10.18,0,0,0,291,26a9.36,9.36,0,0,0-9.28-8.25H169.84a9.35,9.35,0,0,0-9.34,9.36V43.62Z"/><path class="cls-9" d="M291.09,24.94a9.35,9.35,0,0,1-9.34,9.34H169.84a9.35,9.35,0,0,0-9.34,9.34V24.94a9.35,9.35,0,0,1,9.34-9.36H281.75A9.35,9.35,0,0,1,291.09,24.94Z"/><text class="cls-7" transform="translate(176.39 45.92)">El principio de la vida. La vida <tspan x="0" y="8.4">es el primero y más </tspan><tspan x="0" y="16.8">importante derecho del ser </tspan><tspan x="0" y="25.2">humano.</tspan></text><text class="cls-8" transform="translate(221.76 28.69)">b)</text><path class="cls-2" d="M335.92,34.28h-5.08a9.35,9.35,0,0,0,0,18.69h5.08Z"/><path class="cls-10" d="M335.92,34.28h-5.08a9.35,9.35,0,0,0,0,18.69h5.08Z"/><path class="cls-4" d="M445.85,53.15l-.94-28.48A11.09,11.09,0,0,0,433.39,14l-92.95,3a11.1,11.1,0,0,0-10.79,11.41l1.74,53A11.09,11.09,0,0,0,342.91,92.1l92.94-3a11.12,11.12,0,0,0,10.8-11.41l-.2-6C446.34,68.13,446,56.66,445.85,53.15Z"/><path class="cls-5" d="M446.63,23.58a11,11,0,0,0-11-11h-92a11,11,0,0,0-11,11v53a11,11,0,0,0,11,11h92a11,11,0,0,0,11-11Z"/><path class="cls-4" d="M321.56,44.73a9.4,9.4,0,0,1,2.67-5.5,9.29,9.29,0,0,1,6.61-2.74H442.75a9.34,9.34,0,0,0,9.34-9.34A10.18,10.18,0,0,0,452,26a9.36,9.36,0,0,0-9.28-8.25H330.84a9.35,9.35,0,0,0-9.34,9.36V43.62Z"/><path class="cls-10" d="M452.09,24.94a9.35,9.35,0,0,1-9.34,9.34H330.84a9.35,9.35,0,0,0-9.34,9.34V24.94a9.35,9.35,0,0,1,9.34-9.36H442.75A9.35,9.35,0,0,1,452.09,24.94Z"/><text class="cls-11" transform="translate(337.39 45.54)">El principio de la dignidad: Toda <tspan x="0" y="7.8">persona tiene valor por sí misma. </tspan><tspan x="0" y="15.6">Es la base de la consideración y </tspan><tspan x="0" y="23.4">del trato educado que merecen </tspan><tspan x="0" y="31.2">todas las personas. </tspan></text><text class="cls-8" transform="translate(383.31 28.69)">c)</text><path class="cls-2" d="M25.92,132.28H20.84a9.35,9.35,0,0,0,0,18.69h5.08Z"/><path class="cls-12" d="M25.92,132.28H20.84a9.35,9.35,0,0,0,0,18.69h5.08Z"/><path class="cls-4" d="M135.85,151.15l-.94-28.48A11.09,11.09,0,0,0,123.39,112l-92.95,3a11.1,11.1,0,0,0-10.79,11.41l1.74,53A11.09,11.09,0,0,0,32.91,190.1l92.94-3a11.12,11.12,0,0,0,10.8-11.41l-.2-6C136.34,166.13,136,154.66,135.85,151.15Z"/><path class="cls-5" d="M136.63,121.58a11,11,0,0,0-11-11h-92a11,11,0,0,0-11,11v53a11,11,0,0,0,11,11h92a11,11,0,0,0,11-11Z"/><path class="cls-4" d="M11.56,142.73a9.4,9.4,0,0,1,2.67-5.5,9.29,9.29,0,0,1,6.61-2.74H132.75a9.34,9.34,0,0,0,9.34-9.34A10.18,10.18,0,0,0,142,124a9.36,9.36,0,0,0-9.28-8.25H20.84a9.35,9.35,0,0,0-9.34,9.36v16.47Z"/><path class="cls-12" d="M142.09,122.94a9.35,9.35,0,0,1-9.34,9.34H20.84a9.35,9.35,0,0,0-9.34,9.34V122.94a9.35,9.35,0,0,1,9.34-9.36H132.75A9.35,9.35,0,0,1,142.09,122.94Z"/><text class="cls-7" transform="translate(27.39 143.92)">El principio de la igualdad: <tspan x="0" y="8.4">Todos somos </tspan><tspan x="0" y="16.8">fundamentalmente iguales. </tspan></text><text class="cls-8" transform="translate(72.76 126.69)">d)</text><path class="cls-2" d="M174.92,132.28h-5.08a9.35,9.35,0,0,0,0,18.69h5.08Z"/><path class="cls-13" d="M174.92,132.28h-5.08a9.35,9.35,0,0,0,0,18.69h5.08Z"/><path class="cls-4" d="M284.85,151.15l-.94-28.48A11.09,11.09,0,0,0,272.39,112l-92.95,3a11.1,11.1,0,0,0-10.79,11.41l1.74,53a11.09,11.09,0,0,0,11.52,10.66l92.94-3a11.12,11.12,0,0,0,10.8-11.41l-.2-6C285.34,166.13,285,154.66,284.85,151.15Z"/><path class="cls-5" d="M285.63,121.58a11,11,0,0,0-11-11h-92a11,11,0,0,0-11,11v53a11,11,0,0,0,11,11h92a11,11,0,0,0,11-11Z"/><path class="cls-4" d="M160.56,142.73a9.4,9.4,0,0,1,2.67-5.5,9.29,9.29,0,0,1,6.61-2.74H281.75a9.34,9.34,0,0,0,9.34-9.34A10.18,10.18,0,0,0,291,124a9.36,9.36,0,0,0-9.28-8.25H169.84a9.35,9.35,0,0,0-9.34,9.36v16.47Z"/><path class="cls-13" d="M291.09,122.94a9.35,9.35,0,0,1-9.34,9.34H169.84a9.35,9.35,0,0,0-9.34,9.34V122.94a9.35,9.35,0,0,1,9.34-9.36H281.75A9.35,9.35,0,0,1,291.09,122.94Z"/><text class="cls-7" transform="translate(176.39 143.92)">El principio de la libertad: La <tspan x="0" y="8.4">persona por naturaleza es un </tspan><tspan x="0" y="16.8">ser libre y para la libertad. </tspan></text><text class="cls-8" transform="translate(221.96 126.69)">e)</text><path class="cls-2" d="M335.92,132.28h-5.08a9.35,9.35,0,0,0,0,18.69h5.08Z"/><path class="cls-14" d="M335.92,132.28h-5.08a9.35,9.35,0,0,0,0,18.69h5.08Z"/><path class="cls-4" d="M445.85,151.15l-.94-28.48A11.09,11.09,0,0,0,433.39,112l-92.95,3a11.1,11.1,0,0,0-10.79,11.41l1.74,53a11.09,11.09,0,0,0,11.52,10.66l92.94-3a11.12,11.12,0,0,0,10.8-11.41l-.2-6C446.34,166.13,446,154.66,445.85,151.15Z"/><path class="cls-5" d="M446.63,121.58a11,11,0,0,0-11-11h-92a11,11,0,0,0-11,11v53a11,11,0,0,0,11,11h92a11,11,0,0,0,11-11Z"/><path class="cls-4" d="M321.56,142.73a9.4,9.4,0,0,1,2.67-5.5,9.29,9.29,0,0,1,6.61-2.74H442.75a9.34,9.34,0,0,0,9.34-9.34A10.18,10.18,0,0,0,452,124a9.36,9.36,0,0,0-9.28-8.25H330.84a9.35,9.35,0,0,0-9.34,9.36v16.47Z"/><path class="cls-14" d="M452.09,122.94a9.35,9.35,0,0,1-9.34,9.34H330.84a9.35,9.35,0,0,0-9.34,9.34V122.94a9.35,9.35,0,0,1,9.34-9.36H442.75A9.35,9.35,0,0,1,452.09,122.94Z"/><text class="cls-7" transform="translate(337.39 143.92)">El principio de solidaridad: Se <tspan x="0" y="8.4">refiere a la disposición de los </tspan><tspan x="0" y="16.8">seres humanos a prestarse </tspan><tspan x="0" y="25.2">apoyo y ayuda mutua. </tspan></text><text class="cls-8" transform="translate(383.88 126.69)">f)</text></g></g></svg>