<svg id="Capa_1" data-name="Capa 1" xmlns="http://www.w3.org/2000/svg" viewBox="0 0 215 204"><defs><style>.cls-1{fill:#d5f7d5;}.cls-2{font-size:6px;font-family:OpenSans-Bold, Open Sans;}.cls-2,.cls-3{fill:#676868;}.cls-2,.cls-4{font-weight:700;}.cls-3{font-size:5px;font-family:OpenSans-Semibold, Open Sans;}.cls-5{font-family:OpenSans, Open Sans;}.cls-6{fill:#6eb76f;}.cls-6,.cls-7{stroke:#377737;}.cls-6,.cls-7,.cls-9{stroke-miterlimit:10;}.cls-7,.cls-9{fill:none;}.cls-7{stroke-width:2px;}.cls-8{fill:#377737;}.cls-9{stroke:#6eb76f;}</style></defs><title>u4_p4_esquema12</title><rect class="cls-1" x="2.5" y="3.5" width="209" height="18"/><text class="cls-2" transform="translate(30.67 14)">Elementos</text><text class="cls-2" transform="translate(133.67 14)">Representación</text><text class="cls-3" transform="translate(32.29 38.33)"><tspan class="cls-4">Nudos de Decisión</tspan><tspan class="cls-5"><tspan x="-11.35" y="6">Elección segura determinada</tspan><tspan x="-4.57" y="12">por el sujeto u entidad.</tspan></tspan></text><text class="cls-3" transform="translate(36.34 83.33)"><tspan class="cls-4">Nudo Aleatorio</tspan><tspan class="cls-5"><tspan x="-2.61" y="6">Advierte de varios</tspan><tspan x="-5.27" y="12">resultados inciertos.</tspan></tspan></text><text class="cls-3" transform="translate(41.63 128.33)"><tspan class="cls-4">Nudo Final</tspan><tspan class="cls-5"><tspan x="-10.09" y="6">Resultado definitivo</tspan><tspan x="-3.51" y="12">de un camino.</tspan></tspan></text><text class="cls-3" transform="translate(46.56 174.33)"><tspan class="cls-4">Ramas</tspan><tspan class="cls-5"><tspan x="-18.02" y="6">Posibles resultados de</tspan><tspan x="-19.49" y="12">determinadas acciones.</tspan></tspan></text><rect class="cls-6" x="140.5" y="28.5" width="39" height="30"/><ellipse class="cls-6" cx="160" cy="87.5" rx="21.5" ry="17"/><polygon class="cls-6" points="159.75 113.5 134.99 152.5 184.5 152.5 159.75 113.5"/><line class="cls-7" x1="133.5" y1="178.5" x2="179.32" y2="178.5"/><polygon class="cls-8" points="177.87 183.49 186.5 178.5 177.87 173.51 177.87 183.49"/><rect class="cls-9" x="2.5" y="3" width="209.5" height="18"/><line class="cls-9" x1="107" y1="3" x2="107" y2="202"/><line class="cls-9" x1="212" y1="65.75" x2="2" y2="65.75"/><line class="cls-9" x1="212" y1="111" x2="2" y2="111"/><line class="cls-9" x1="212" y1="156.25" x2="2" y2="156.25"/><polyline class="cls-9" points="2.5 20.5 2.5 201.5 212 201.5 212 20.5"/></svg>