<svg id="Capa_1" data-name="Capa 1" xmlns="http://www.w3.org/2000/svg" viewBox="0 0 231 158"><defs><style>.cls-1{fill:none;stroke-width:0.75px;}.cls-1,.cls-5{stroke:#676868;stroke-miterlimit:10;}.cls-2,.cls-6,.cls-7{fill:#676868;}.cls-3,.cls-5{fill:#ccc;}.cls-4{fill:#fff;}.cls-5{stroke-width:0.5px;}.cls-6{font-size:9px;}.cls-6,.cls-7{font-family:OpenSans, Open Sans;}.cls-7{font-size:8px;}</style></defs><title>u4_p3_esquema6</title><line class="cls-1" x1="77.97" y1="126.5" x2="34" y2="126.5"/><path class="cls-2" d="M82.5,126.5a22.65,22.65,0,0,1-6.41-3.57l1.29,3.57-1.29,3.57A22.65,22.65,0,0,1,82.5,126.5Z"/><line class="cls-1" x1="135.97" y1="126.5" x2="95" y2="126.5"/><path class="cls-2" d="M140.5,126.5a22.65,22.65,0,0,1-6.41-3.57l1.29,3.57-1.29,3.57A22.65,22.65,0,0,1,140.5,126.5Z"/><line class="cls-1" x1="77.97" y1="10.5" x2="34" y2="10.5"/><path class="cls-2" d="M82.5,10.5a22.65,22.65,0,0,1-6.41-3.57l1.29,3.57-1.29,3.57A22.65,22.65,0,0,1,82.5,10.5Z"/><line class="cls-1" x1="135.97" y1="10.5" x2="95" y2="10.5"/><path class="cls-2" d="M140.5,10.5a22.65,22.65,0,0,1-6.41-3.57l1.29,3.57-1.29,3.57A22.65,22.65,0,0,1,140.5,10.5Z"/><line class="cls-1" x1="77.97" y1="88.5" x2="34" y2="88.5"/><path class="cls-2" d="M82.5,88.5a22.65,22.65,0,0,1-6.41-3.57l1.29,3.57-1.29,3.57A22.65,22.65,0,0,1,82.5,88.5Z"/><line class="cls-1" x1="135.97" y1="88.5" x2="95" y2="88.5"/><path class="cls-2" d="M140.5,88.5a22.65,22.65,0,0,1-6.41-3.57l1.29,3.57-1.29,3.57A22.65,22.65,0,0,1,140.5,88.5Z"/><line class="cls-1" x1="77.97" y1="46.5" x2="34" y2="46.5"/><path class="cls-2" d="M82.5,46.5a22.65,22.65,0,0,1-6.41-3.57l1.29,3.57-1.29,3.57A22.65,22.65,0,0,1,82.5,46.5Z"/><line class="cls-1" x1="135.97" y1="46.5" x2="95" y2="46.5"/><path class="cls-2" d="M140.5,46.5a22.65,22.65,0,0,1-6.41-3.57l1.29,3.57-1.29,3.57A22.65,22.65,0,0,1,140.5,46.5Z"/><line class="cls-1" x1="183.97" y1="46.5" x2="153" y2="46.5"/><path class="cls-2" d="M188.5,46.5a22.65,22.65,0,0,1-6.41-3.57l1.29,3.57-1.29,3.57A22.65,22.65,0,0,1,188.5,46.5Z"/><line class="cls-1" x1="183.97" y1="88.5" x2="153" y2="88.5"/><path class="cls-2" d="M188.5,88.5a22.65,22.65,0,0,1-6.41-3.57l1.29,3.57-1.29,3.57A22.65,22.65,0,0,1,188.5,88.5Z"/><line class="cls-1" x1="218.97" y1="46.5" x2="201" y2="46.5"/><path class="cls-2" d="M223.5,46.5a22.65,22.65,0,0,1-6.41-3.57l1.29,3.57-1.29,3.57A22.65,22.65,0,0,1,223.5,46.5Z"/><line class="cls-1" x1="218.97" y1="88.5" x2="201" y2="88.5"/><path class="cls-2" d="M223.5,88.5a22.65,22.65,0,0,1-6.41-3.57l1.29,3.57-1.29,3.57A22.65,22.65,0,0,1,223.5,88.5Z"/><polyline class="cls-1" points="186.5 97.01 152.39 124.37 192.16 58.38"/><path class="cls-2" d="M190,94.18a22.56,22.56,0,0,1-7.24,1.23l3.24,2,1.23,3.58A22.57,22.57,0,0,1,190,94.18Z"/><path class="cls-2" d="M194.5,54.5a22.66,22.66,0,0,0-.25,7.33l-2.39-2.94-3.72-.74A22.7,22.7,0,0,0,194.5,54.5Z"/><polyline class="cls-1" points="192.15 79.63 152.22 13.86 186 41.63"/><path class="cls-2" d="M194.5,83.5a22.68,22.68,0,0,1-.28-7.33l-2.38,3-3.72.75A22.59,22.59,0,0,1,194.5,83.5Z"/><path class="cls-2" d="M189.5,44.5a22.52,22.52,0,0,0-7.22-1.31l3.26-1.94,1.27-3.58A22.73,22.73,0,0,0,189.5,44.5Z"/><line class="cls-3" x1="151.2" y1="85.05" x2="189.5" y2="53.5"/><line class="cls-1" x1="151.2" y1="85.05" x2="186.01" y2="56.38"/><path class="cls-2" d="M189.5,53.5a22.81,22.81,0,0,0-2.68,6.83l-1.27-3.57-3.27-1.94A22.81,22.81,0,0,0,189.5,53.5Z"/><polyline class="cls-1" points="79.66 41.1 34 12.51 86.48 117.45"/><path class="cls-2" d="M83.5,43.5A22.57,22.57,0,0,1,80,37.07l-.8,3.71-3,2.34A22.73,22.73,0,0,1,83.5,43.5Z"/><path class="cls-2" d="M88.5,121.5a22.82,22.82,0,0,0-6.06-4.14l3.77-.44,2.61-2.75A22.69,22.69,0,0,0,88.5,121.5Z"/><polyline class="cls-1" points="78.8 15.11 31.5 48.5 78.87 83.8"/><path class="cls-2" d="M82.5,12.5a22.79,22.79,0,0,1-7.29.78l3.11,2.17,1,3.66A22.62,22.62,0,0,1,82.5,12.5Z"/><path class="cls-2" d="M82.5,86.5a22.52,22.52,0,0,0-7.27-1l3.16-2.09,1.1-3.63A22.64,22.64,0,0,0,82.5,86.5Z"/><line class="cls-4" x1="83.5" y1="122.5" x2="32.84" y2="49.5"/><line class="cls-1" x1="80.92" y1="118.78" x2="32.84" y2="49.5"/><path class="cls-2" d="M83.5,122.5a22.79,22.79,0,0,1-.72-7.3l-2.2,3.09-3.66,1A22.62,22.62,0,0,1,83.5,122.5Z"/><polyline class="cls-1" points="80.94 18.24 31.5 90.5 78.73 121.99"/><path class="cls-2" d="M83.5,14.5a22.8,22.8,0,0,1-6.56,3.28l3.67.95,2.21,3.07A22.77,22.77,0,0,1,83.5,14.5Z"/><path class="cls-2" d="M82.5,124.5a22.76,22.76,0,0,0-7.31-.59l3-2.25.9-3.68A22.84,22.84,0,0,0,82.5,124.5Z"/><polyline class="cls-1" points="86.45 21.53 32.5 127.5 77.78 96.08"/><path class="cls-2" d="M88.5,17.5a22.54,22.54,0,0,1-6.09,4.09l3.77.47,2.59,2.77A22.7,22.7,0,0,1,88.5,17.5Z"/><path class="cls-2" d="M81.5,93.5a22.55,22.55,0,0,0-3.23,6.59l-1-3.67-3.09-2.2A22.51,22.51,0,0,0,81.5,93.5Z"/><line class="cls-4" x1="87.25" y1="83.74" x2="32.5" y2="11.5"/><line class="cls-1" x1="84.52" y1="80.14" x2="32.5" y2="11.5"/><path class="cls-2" d="M87.25,83.74a23.06,23.06,0,0,1-1-7.26l-2.06,3.18-3.62,1.13A22.46,22.46,0,0,1,87.25,83.74Z"/><line class="cls-4" x1="87.25" y1="54.5" x2="31.5" y2="127.5"/><line class="cls-1" x1="84.51" y1="58.1" x2="31.5" y2="127.5"/><path class="cls-2" d="M87.25,54.5a22.83,22.83,0,0,1-6.72,2.93l3.62,1.14,2,3.19A22.8,22.8,0,0,1,87.25,54.5Z"/><line class="cls-4" x1="83.5" y1="52" x2="30.5" y2="89.5"/><line class="cls-1" x1="79.81" y1="54.61" x2="30.5" y2="89.5"/><path class="cls-2" d="M83.5,52a22.52,22.52,0,0,1-7.29.79L79.32,55l1,3.65A22.59,22.59,0,0,1,83.5,52Z"/><polyline class="cls-1" points="138.28 41.32 94.22 13.86 144.51 116.44"/><path class="cls-2" d="M142.12,43.72a22.83,22.83,0,0,1-3.56-6.42L137.77,41l-3,2.34A22.45,22.45,0,0,1,142.12,43.72Z"/><path class="cls-2" d="M146.5,120.5a23.05,23.05,0,0,0-6-4.19l3.77-.41,2.63-2.73A22.67,22.67,0,0,0,146.5,120.5Z"/><line class="cls-1" x1="136.75" y1="121.97" x2="94.5" y2="93.5"/><path class="cls-2" d="M140.5,124.5a22.82,22.82,0,0,1-3.32-6.54l-.93,3.68-3.06,2.23A22.78,22.78,0,0,1,140.5,124.5Z"/><polyline class="cls-1" points="137.84 83.87 92.5 51.5 140.55 119.07"/><path class="cls-2" d="M141.53,86.5a22.64,22.64,0,0,1-3.15-6.63l-1,3.65-3.12,2.16A22.81,22.81,0,0,1,141.53,86.5Z"/><path class="cls-2" d="M143.17,122.76a22.74,22.74,0,0,0-6.62-3.16l3.65-1,2.16-3.11A22.83,22.83,0,0,0,143.17,122.76Z"/><polyline class="cls-1" points="136.73 96.01 92.5 125.5 144.48 21.55"/><path class="cls-2" d="M140.5,93.5a22.76,22.76,0,0,1-7.31.59l3.05,2.25.9,3.68A22.84,22.84,0,0,1,140.5,93.5Z"/><path class="cls-2" d="M146.5,17.5a22.68,22.68,0,0,0,.32,7.33l-2.61-2.75-3.77-.44A22.82,22.82,0,0,0,146.5,17.5Z"/><line class="cls-1" x1="142.54" y1="80.12" x2="92.5" y2="13.5"/><path class="cls-2" d="M145.25,83.74a22.76,22.76,0,0,1-1-7.26l-2.08,3.17-3.63,1.11A22.75,22.75,0,0,1,145.25,83.74Z"/><polyline class="cls-1" points="140.52 18.91 92.5 85.5 137.71 55.98"/><path class="cls-2" d="M143.17,15.24a22.84,22.84,0,0,1-6.64,3.12l3.64,1,2.14,3.13A22.54,22.54,0,0,1,143.17,15.24Z"/><path class="cls-2" d="M141.5,53.5A22.75,22.75,0,0,0,138.08,60l-.87-3.69-3-2.28A22.74,22.74,0,0,0,141.5,53.5Z"/><line class="cls-1" x1="142.57" y1="58.14" x2="91.5" y2="127.5"/><path class="cls-2" d="M145.25,54.5a22.79,22.79,0,0,1-6.67,3l3.64,1.07,2.1,3.16A23.09,23.09,0,0,1,145.25,54.5Z"/><line class="cls-2" x1="140.5" y1="13.5" x2="92.5" y2="46.5"/><line class="cls-1" x1="136.77" y1="16.06" x2="92.5" y2="46.5"/><path class="cls-2" d="M140.5,13.5a22.48,22.48,0,0,1-7.3.69l3.08,2.21,1,3.67A22.66,22.66,0,0,1,140.5,13.5Z"/><circle class="cls-2" cx="31" cy="100" r="1"/><circle class="cls-2" cx="31" cy="107.33" r="1"/><circle class="cls-2" cx="31" cy="114.67" r="1"/><circle class="cls-2" cx="31" cy="122" r="1"/><circle class="cls-2" cx="88" cy="100" r="1"/><circle class="cls-2" cx="88" cy="107.33" r="1"/><circle class="cls-2" cx="88" cy="114.67" r="1"/><circle class="cls-2" cx="147" cy="100" r="1"/><circle class="cls-2" cx="147" cy="107.33" r="1"/><circle class="cls-2" cx="147" cy="114.67" r="1"/><circle class="cls-5" cx="147" cy="128" r="6.5"/><circle class="cls-5" cx="147" cy="90" r="6.5"/><circle class="cls-5" cx="147" cy="48" r="6.5"/><circle class="cls-5" cx="147" cy="10" r="6.5"/><circle class="cls-5" cx="195" cy="48" r="6.5"/><circle class="cls-5" cx="195" cy="90" r="6.5"/><circle class="cls-5" cx="89" cy="10" r="6.5"/><circle class="cls-5" cx="89" cy="128" r="6.5"/><circle class="cls-5" cx="89" cy="90" r="6.5"/><circle class="cls-5" cx="89" cy="48" r="6.5"/><rect class="cls-4" x="27.38" y="86.38" width="6.25" height="6.25"/><path class="cls-2" d="M33.25,86.75v5.5h-5.5v-5.5h5.5M34,86H27v7h7V86Z"/><rect class="cls-4" x="27.38" y="45.38" width="6.25" height="6.25"/><path class="cls-2" d="M33.25,45.75v5.5h-5.5v-5.5h5.5M34,45H27v7h7V45Z"/><rect class="cls-4" x="27.38" y="123.38" width="6.25" height="6.25"/><path class="cls-2" d="M33.25,123.75v5.5h-5.5v-5.5h5.5M34,123H27v7h7v-7Z"/><rect class="cls-4" x="27.38" y="8.38" width="6.25" height="6.25"/><path class="cls-2" d="M33.25,8.75v5.5h-5.5V8.75h5.5M34,8H27v7h7V8Z"/><text class="cls-6" transform="translate(1.7 139)">Capa de<tspan x="0.6" y="10.8">Entrada</tspan></text><text class="cls-7" transform="translate(59.41 142)">Primera Capa<tspan x="13.21" y="9.6">Oculta</tspan></text><text class="cls-7" transform="translate(122.07 142)">Segunda Capa<tspan x="14.56" y="9.6">Oculta</tspan></text><text class="cls-7" transform="translate(197.59 142)">Capa de<tspan x="4.04" y="9.6">Salida</tspan></text></svg>