<svg id="Capa_1" data-name="Capa 1" xmlns="http://www.w3.org/2000/svg" viewBox="0 0 181 158"><defs><style>.cls-1{fill:#fff;}.cls-2,.cls-4{fill:#676868;}.cls-3{fill:none;stroke:#676868;stroke-miterlimit:10;}.cls-4{font-size:13.16px;font-family:OpenSans, Open Sans;}</style></defs><title>u4_p3_esquema5</title><circle class="cls-1" cx="106" cy="19" r="16.5"/><path class="cls-2" d="M106,3A16,16,0,1,1,90,19,16,16,0,0,1,106,3m0-1a17,17,0,1,0,17,17A17,17,0,0,0,106,2Z"/><circle class="cls-1" cx="106" cy="61.5" r="16.5"/><path class="cls-2" d="M106,45.5a16,16,0,1,1-16,16,16,16,0,0,1,16-16m0-1a17,17,0,1,0,17,17,17,17,0,0,0-17-17Z"/><circle class="cls-1" cx="106" cy="104" r="16.5"/><path class="cls-2" d="M106,88a16,16,0,1,1-16,16,16,16,0,0,1,16-16m0-1a17,17,0,1,0,17,17,17,17,0,0,0-17-17Z"/><line class="cls-3" x1="122.5" y1="18.5" x2="170.46" y2="18.5"/><path class="cls-2" d="M176.5,18.5A30.1,30.1,0,0,0,168,23.26l1.72-4.76L168,13.75A30.31,30.31,0,0,0,176.5,18.5Z"/><line class="cls-3" x1="123" y1="61.5" x2="170.96" y2="61.5"/><path class="cls-2" d="M177,61.5a30.1,30.1,0,0,0-8.55,4.76l1.72-4.76-1.72-4.75A30.31,30.31,0,0,0,177,61.5Z"/><line class="cls-3" x1="123" y1="104.5" x2="170.96" y2="104.5"/><path class="cls-2" d="M177,104.5a30.1,30.1,0,0,0-8.55,4.76l1.72-4.76-1.72-4.75A30.31,30.31,0,0,0,177,104.5Z"/><polyline class="cls-3" points="81.97 18.5 29 18.5 86.67 88.83"/><path class="cls-2" d="M88,18.5a30.1,30.1,0,0,1-8.55-4.76l1.72,4.76-1.72,4.75A30.31,30.31,0,0,1,88,18.5Z"/><path class="cls-2" d="M90.5,93.5a30.15,30.15,0,0,0-9.1-3.59l4.77-1.69,2.59-4.34A30,30,0,0,0,90.5,93.5Z"/><polyline class="cls-3" points="85.55 29.44 32.5 66.5 84.24 95.55"/><path class="cls-2" d="M90.5,26a30.3,30.3,0,0,1-9.73,1l4.13,2.91,1.32,4.88A30.08,30.08,0,0,1,90.5,26Z"/><path class="cls-2" d="M89.5,98.5a30.29,30.29,0,0,0-9.78,0l3.83-3.3.82-5A30.44,30.44,0,0,0,89.5,98.5Z"/><polyline class="cls-3" points="87.64 36.14 26.5 109.5 83.47 109.5"/><path class="cls-2" d="M91.5,31.5A30.13,30.13,0,0,1,82.37,35l4.76,1.72,2.55,4.37A30.31,30.31,0,0,1,91.5,31.5Z"/><path class="cls-2" d="M89.5,109.5A30.1,30.1,0,0,0,81,114.26l1.72-4.76L81,104.75A30.31,30.31,0,0,0,89.5,109.5Z"/><line class="cls-3" x1="90.89" y1="78.12" x2="26.5" y2="109.5"/><path class="cls-2" d="M96.32,75.47a30,30,0,0,1-9.77-.53l3.63,3.52.54,5A30.23,30.23,0,0,1,96.32,75.47Z"/><line class="cls-3" x1="32.5" y1="66.5" x2="83.46" y2="66.5"/><path class="cls-2" d="M89.5,66.5A30.1,30.1,0,0,0,81,71.26l1.72-4.76L81,61.75A30.31,30.31,0,0,0,89.5,66.5Z"/><line class="cls-3" x1="29.5" y1="18.5" x2="85.16" y2="47.7"/><path class="cls-2" d="M90.5,50.5a30.18,30.18,0,0,0-9.78.24l3.73-3.41.69-5A30.09,30.09,0,0,0,90.5,50.5Z"/><rect class="cls-1" x="24.5" y="14.5" width="6" height="6"/><path class="cls-2" d="M30,15v5H25V15h5m1-1H24v7h7V14Z"/><rect class="cls-1" x="24.5" y="63.5" width="6" height="6"/><path class="cls-2" d="M30,64v5H25V64h5m1-1H24v7h7V63Z"/><rect class="cls-1" x="24.5" y="104.5" width="6" height="6"/><path class="cls-2" d="M30,105v5H25v-5h5m1-1H24v7h7v-7Z"/><text class="cls-4" transform="translate(4.73 135.03)">Capa de <tspan x="2.55" y="15.79">entrada</tspan></text><text class="cls-4" transform="translate(83.73 135.03)">Capa de <tspan x="8.82" y="15.79">salida</tspan></text></svg>