<svg id="Capa_1" data-name="Capa 1" xmlns="http://www.w3.org/2000/svg" viewBox="0 0 208 72"><defs><style>.cls-1,.cls-2,.cls-3,.cls-4{fill:#676868;}.cls-2{font-size:7.77px;}.cls-2,.cls-3,.cls-4{font-family:OpenSans, Open Sans;}.cls-3{font-size:9px;}.cls-4{font-size:8px;}.cls-5{fill:none;stroke:#676868;stroke-miterlimit:10;stroke-width:0.75px;}</style></defs><title>u4_p3_esquema9</title><path class="cls-1" d="M86.5,24.5v26h-53v-26h53M87,24H33V51H87V24Z"/><path class="cls-1" d="M151.5,24.5v26h-53v-26h53m.5-.5H98V51h54V24Z"/><text class="cls-2" transform="translate(45.37 35.23)">Sistema<tspan x="-9.05" y="11.65">Desconocido</tspan></text><text class="cls-2" transform="translate(117.7 35.23)">Red<tspan x="-9.99" y="11.65">Neuronal</tspan></text><text class="cls-2" transform="translate(3.37 49.13)">Entrada</text><text class="cls-2" transform="translate(152.77 49.13)">Salida</text><text class="cls-2" transform="translate(133.31 65.13)">Error</text><text class="cls-2" transform="translate(69.98 9.13)">Señal Deseada</text><text class="cls-3" transform="translate(188.54 39.33)">+</text><text class="cls-4" transform="translate(193.83 21.33)">+</text><text class="cls-4" transform="translate(178.83 44.33)">-</text><line class="cls-5" x1="177.33" y1="37.5" x2="151.5" y2="37.5"/><path class="cls-1" d="M180.5,37.5A15.86,15.86,0,0,1,176,35l.91,2.5L176,40A15.86,15.86,0,0,1,180.5,37.5Z"/><line class="cls-5" x1="94.83" y1="39.5" x2="87" y2="39.5"/><path class="cls-1" d="M98,39.5A15.86,15.86,0,0,1,93.51,37l.91,2.5L93.51,42A15.86,15.86,0,0,1,98,39.5Z"/><line class="cls-5" x1="29.83" y1="39.5" x2="9" y2="39.5"/><path class="cls-1" d="M33,39.5A15.86,15.86,0,0,1,28.51,37l.91,2.5L28.51,42A15.86,15.86,0,0,1,33,39.5Z"/><polyline class="cls-5" points="94.83 45.52 89.5 45.52 89.5 66.5 191.5 66.5 191.5 45.5"/><path class="cls-1" d="M98,45.52A16.11,16.11,0,0,1,93.51,43l.91,2.5L93.51,48A15.84,15.84,0,0,1,98,45.52Z"/><polyline class="cls-5" points="191.5 24.33 191.5 12.5 20.5 12.5 20.5 39.5"/><path class="cls-1" d="M191.5,27.5A15.86,15.86,0,0,1,194,23l-2.5.91L189,23A15.86,15.86,0,0,1,191.5,27.5Z"/><path class="cls-1" d="M191.5,27.5a9,9,0,1,1-9,9,9,9,0,0,1,9-9m0-.5a9.5,9.5,0,1,0,9.5,9.5,9.5,9.5,0,0,0-9.5-9.5Z"/></svg>