<svg id="Capa_1" data-name="Capa 1" xmlns="http://www.w3.org/2000/svg" viewBox="0 0 111 63"><defs><style>.cls-1,.cls-2,.cls-3,.cls-4{font-size:10.27px;}.cls-1,.cls-2,.cls-3,.cls-4,.cls-5,.cls-6,.cls-7{fill:#676868;}.cls-1,.cls-4,.cls-5{font-family:OpenSans, Open Sans;}.cls-2,.cls-3{font-family:OpenSans-Italic, Open Sans;font-style:italic;}.cls-3{letter-spacing:0em;}.cls-4{letter-spacing:0em;}.cls-5{font-size:6px;}.cls-6{font-size:16.6px;font-family:MyriadPro-Regular, Myriad Pro;}</style></defs><title>u4_p3_esquema3</title><text class="cls-1" transform="translate(22.54 17.8)">U</text><text class="cls-1" transform="translate(30.02 21.22) scale(0.58)">n</text><text class="cls-2" transform="translate(2.05 56.8)">salida = </text><text class="cls-2" transform="translate(50.08 56.8)">(U</text><text class="cls-3" transform="translate(59.95 60.22) scale(0.58)">n</text><text class="cls-2" transform="translate(63.41 56.8)"><tspan xml:space="preserve"> - umbral)</tspan></text><text class="cls-1" transform="translate(74.39 17.8)">.x (j)</text><text class="cls-1" transform="translate(59.77 17.8)">W</text><text class="cls-4" transform="translate(69.28 21.22) scale(0.58)">nj</text><text class="cls-5" transform="translate(50.54 6.8)">k</text><text class="cls-5" transform="translate(47.93 28.8)">j=1</text><text class="cls-1" transform="translate(38.18 18.8)">=</text><text class="cls-6" transform="translate(46 19.85)">∑</text><path class="cls-7" d="M43.92,56.68c0,.92,0,1.76,0,2.6,0,1.13,0,1.13-1.14,1,0-2.22-.05-4.43,0-6.64A3.19,3.19,0,0,1,45,50.48,3,3,0,0,1,49,53.2c.33,2.58-1.56,4.55-4,3.93A9.8,9.8,0,0,1,43.92,56.68Zm3.88-2.63a14.68,14.68,0,0,0-.72-2.43,1.57,1.57,0,0,0-2.76-.14,4.93,4.93,0,0,0,.43,4.83,1.55,1.55,0,0,0,2.69-.55A15.25,15.25,0,0,0,47.8,54.05Z"/></svg>