<svg id="Capa_1" data-name="Capa 1" xmlns="http://www.w3.org/2000/svg" viewBox="0 0 208 96"><defs><style>.cls-1{fill:#fff;}.cls-2,.cls-3,.cls-4{fill:#676868;}.cls-3{font-size:6.99px;}.cls-3,.cls-4{font-family:OpenSans, Open Sans;}.cls-4{font-size:8px;}.cls-5{fill:none;stroke:#676868;stroke-miterlimit:10;}</style></defs><title>u4_p3_esquema8</title><rect class="cls-1" x="55.25" y="3.25" width="59.5" height="29.5"/><path class="cls-2" d="M114.5,3.5v29h-59V3.5h59M115,3H55V33h60V3Z"/><rect class="cls-1" x="55.25" y="50.25" width="59.5" height="29.5"/><path class="cls-2" d="M114.5,50.5v29h-59v-29h59m.5-.5H55V80h60V50Z"/><text class="cls-3" transform="translate(7.43 35.54)">Entrada</text><text class="cls-3" transform="translate(72.57 11.54)">Sistema<tspan x="-8.15" y="12">Desconocido</tspan></text><text class="cls-3" transform="translate(63 66.54)">Red Neuronal</text><text class="cls-3" transform="translate(119.53 15.54)">Señal Deseada (+)</text><circle class="cls-1" cx="161.5" cy="44.5" r="8.25"/><path class="cls-2" d="M161.5,36.5a8,8,0,1,1-8,8,8,8,0,0,1,8-8m0-.5a8.5,8.5,0,1,0,8.5,8.5,8.51,8.51,0,0,0-8.5-8.5Z"/><text class="cls-3" transform="translate(127.61 62.54)">Salida (-)</text><text class="cls-3" transform="translate(124.1 90.54)">Error</text><text class="cls-4" transform="translate(159.2 47.12)">+</text><polyline class="cls-5" points="115 65.6 161 65.6 161 56.02"/><path class="cls-2" d="M161,53a15.2,15.2,0,0,0,2.38,4.27L161,56.41l-2.38.86A15.2,15.2,0,0,0,161,53Z"/><polyline class="cls-5" points="115 19 161 19 161 32.58"/><path class="cls-2" d="M161,35.6a15.25,15.25,0,0,0-2.38-4.28l2.38.86,2.38-.86A15.25,15.25,0,0,0,161,35.6Z"/><polyline class="cls-5" points="52.48 67.5 43.5 67.5 43.5 92.5 187.5 92.5 187.5 44.5 170.5 44.5"/><path class="cls-2" d="M55.5,67.5a15.2,15.2,0,0,1-4.27-2.38l.86,2.38-.86,2.38A15.2,15.2,0,0,1,55.5,67.5Z"/><polyline class="cls-5" points="51.98 53 43.5 53 43.5 19.5 51.98 19.5"/><path class="cls-2" d="M55,53a15.2,15.2,0,0,1-4.27-2.38L51.59,53l-.86,2.38A15.2,15.2,0,0,1,55,53Z"/><path class="cls-2" d="M55,19.5a15.2,15.2,0,0,0-4.27,2.38l.86-2.38-.86-2.38A15.2,15.2,0,0,0,55,19.5Z"/><line class="cls-5" x1="7.5" y1="41.5" x2="43.5" y2="41.5"/></svg>