<svg id="Capa_1" data-name="Capa 1" xmlns="http://www.w3.org/2000/svg" viewBox="0 0 158 75"><defs><style>.cls-1{font-size:6px;}.cls-1,.cls-2,.cls-4,.cls-8,.cls-9{fill:#676868;}.cls-1,.cls-2,.cls-8,.cls-9{font-family:OpenSans, Open Sans;}.cls-2{font-size:4.6px;}.cls-3,.cls-6,.cls-7{fill:none;}.cls-3,.cls-5,.cls-6,.cls-7{stroke:#676868;stroke-miterlimit:10;}.cls-3{stroke-width:0.75px;}.cls-5{fill:#fff;}.cls-5,.cls-6,.cls-7{stroke-width:0.5px;}.cls-7{stroke-dasharray:1 1;}.cls-8{font-size:10px;}.cls-9{font-size:4.23px;}</style></defs><title>u4_p2_esquema2</title><text class="cls-1" transform="translate(3.27 7.74)">Entradas</text><text class="cls-2" transform="translate(140.21 32.12)">Salida</text><text class="cls-2" transform="translate(115.58 73.12)">Umbral</text><text class="cls-1" transform="translate(2.13 17.87)">x(1)</text><text class="cls-1" transform="translate(95.94 32.87)">U</text><text class="cls-1" transform="translate(100.31 34.86) scale(0.58)">n</text><text class="cls-1" transform="translate(2.13 35.87)">x(2)</text><text class="cls-1" transform="translate(2.28 60.87)">x(k)</text><line class="cls-3" x1="13" y1="15" x2="35.19" y2="15"/><path class="cls-4" d="M37,15a9.13,9.13,0,0,0-2.56,1.43L35,15l-.51-1.43A9.13,9.13,0,0,0,37,15Z"/><polyline class="cls-3" points="51 15.5 70 15.5 82.15 26.3"/><path class="cls-4" d="M83.5,27.5a9.16,9.16,0,0,0-2.86-.64L82,26.14l.56-1.41A9,9,0,0,0,83.5,27.5Z"/><polyline class="cls-3" points="51 58.5 70 58.5 81.29 45.85"/><path class="cls-4" d="M82.5,44.5a9.1,9.1,0,0,0-.64,2.86L81.14,46l-1.41-.57A9,9,0,0,0,82.5,44.5Z"/><line class="cls-3" x1="13" y1="34.5" x2="35.19" y2="34.5"/><path class="cls-4" d="M37,34.5a9.13,9.13,0,0,0-2.56,1.43L35,34.5l-.51-1.43A9.13,9.13,0,0,0,37,34.5Z"/><line class="cls-3" x1="52" y1="34.5" x2="76.19" y2="34.5"/><path class="cls-4" d="M78,34.5a9.13,9.13,0,0,0-2.56,1.43L76,34.5l-.51-1.43A9.13,9.13,0,0,0,78,34.5Z"/><line class="cls-3" x1="94" y1="36.5" x2="105.69" y2="36.5"/><path class="cls-4" d="M107.5,36.5a9.13,9.13,0,0,0-2.56,1.43l.51-1.43-.51-1.43A9.13,9.13,0,0,0,107.5,36.5Z"/><line class="cls-3" x1="133" y1="36.5" x2="153.19" y2="36.5"/><path class="cls-4" d="M155,36.5a9.13,9.13,0,0,0-2.56,1.43L153,36.5l-.51-1.43A9.13,9.13,0,0,0,155,36.5Z"/><line class="cls-3" x1="123.5" y1="68" x2="123.5" y2="48.81"/><path class="cls-4" d="M123.5,47a9.13,9.13,0,0,0,1.43,2.56l-1.43-.51-1.43.51A9.13,9.13,0,0,0,123.5,47Z"/><line class="cls-3" x1="13" y1="58.5" x2="35.19" y2="58.5"/><path class="cls-4" d="M37,58.5a9.13,9.13,0,0,0-2.56,1.43L35,58.5l-.51-1.43A9.13,9.13,0,0,0,37,58.5Z"/><circle class="cls-5" cx="44" cy="16" r="7"/><circle class="cls-5" cx="86" cy="36" r="8.5"/><circle class="cls-5" cx="44.5" cy="33.5" r="7"/><circle class="cls-5" cx="44.5" cy="57.5" r="7"/><line class="cls-6" x1="44.5" y1="40.5" x2="44.5" y2="41"/><line class="cls-7" x1="44.5" y1="42" x2="44.5" y2="49.5"/><line class="cls-6" x1="44.5" y1="50" x2="44.5" y2="50.5"/><text class="cls-1" transform="translate(39.43 59.87)">W</text><text class="cls-1" transform="translate(44.98 61.86) scale(0.58)">nk</text><text class="cls-1" transform="translate(40.35 34.87)">W</text><text class="cls-1" transform="translate(45.9 36.86) scale(0.58)">n2</text><text class="cls-1" transform="translate(39.35 17.87)">W</text><text class="cls-1" transform="translate(44.9 19.86) scale(0.58)">n1</text><text class="cls-8" transform="translate(83.34 39.87)">+</text><rect class="cls-5" x="107.5" y="23.5" width="30" height="23"/><text class="cls-9" transform="translate(112.16 34.22)">Función no<tspan x="5.66" y="5.07">lineal</tspan></text></svg>