<svg id="Capa_1" data-name="Capa 1" xmlns="http://www.w3.org/2000/svg" viewBox="0 0 215 218"><defs><style>.cls-1,.cls-6{fill:#6eb76f;}.cls-2{fill:none;}.cls-2,.cls-6{stroke:#377737;}.cls-2,.cls-4,.cls-6{stroke-miterlimit:10;}.cls-3,.cls-4{fill:#377737;}.cls-4{stroke:#6eb76f;}.cls-5,.cls-9{font-size:5.12px;font-family:OpenSans, Open Sans;}.cls-5,.cls-7{fill:#fff;}.cls-8,.cls-9{fill:#676868;}</style></defs><title>u4_p4_esquema11</title><line class="cls-1" x1="90.5" y1="51.5" x2="48.5" y2="109.5"/><line class="cls-2" x1="88.02" y1="54.92" x2="48.5" y2="109.5"/><path class="cls-3" d="M90.5,51.5a20.86,20.86,0,0,1-6.21,2.89l3.41,1,2,2.93A20.92,20.92,0,0,1,90.5,51.5Z"/><line class="cls-1" x1="90.5" y1="172.5" x2="48.5" y2="114.5"/><line class="cls-2" x1="88.02" y1="169.08" x2="48.5" y2="114.5"/><path class="cls-3" d="M90.5,172.5a20.92,20.92,0,0,1-.81-6.8l-2,2.93-3.4,1A20.92,20.92,0,0,1,90.5,172.5Z"/><line class="cls-2" x1="43" y1="111.5" x2="75.48" y2="111.5"/><path class="cls-3" d="M78.5,111.5a15.2,15.2,0,0,0-4.27,2.38l.86-2.38-.86-2.38A15.2,15.2,0,0,0,78.5,111.5Z"/><rect class="cls-4" x="3.5" y="97.5" width="47" height="25"/><text class="cls-5" transform="translate(9.84 111.65)">Emprendedor</text><ellipse class="cls-6" cx="101" cy="39.5" rx="22.5" ry="12"/><text class="cls-5" transform="translate(86.67 40.67)">Proveedor a</text><rect class="cls-7" x="125.25" y="14.25" width="43.5" height="10.5" transform="translate(0.92 44.99) rotate(-17.45)"/><path class="cls-8" d="M166,8.28l3,9.54-41,12.9-3-9.54,41-12.9m.33-.63-42,13.2,3.3,10.5,42-13.2-3.3-10.5Z"/><text class="cls-9" transform="translate(133.93 25.18) rotate(-17.45)">Repara 75%</text><rect class="cls-7" x="148.75" y="22.75" width="10.5" height="43.5" transform="translate(70.21 181.16) rotate(-74.6)"/><path class="cls-8" d="M134.6,34l41.46,11.42L173.4,55,131.94,43.61,134.6,34m-.35-.61L131.33,44l42.42,11.68L176.67,45,134.25,33.36Z"/><text class="cls-9" transform="translate(136.05 40.87) rotate(15.4)">No Repara 25%</text><line class="cls-1" x1="121.9" y1="35.05" x2="183.5" y2="17.5"/><line class="cls-2" x1="121.9" y1="35.05" x2="179.44" y2="18.66"/><path class="cls-3" d="M183.5,17.5a21,21,0,0,0-4.84,4.84l.24-3.53-2.07-2.87A21.18,21.18,0,0,0,183.5,17.5Z"/><line class="cls-1" x1="121.9" y1="43.5" x2="183.5" y2="61.05"/><line class="cls-2" x1="121.9" y1="43.5" x2="179.44" y2="59.89"/><path class="cls-3" d="M183.5,61.05a21.18,21.18,0,0,0-6.67,1.56l2.07-2.87-.24-3.53A21.17,21.17,0,0,0,183.5,61.05Z"/><polygon class="cls-6" points="198 2.5 187.58 10.07 191.56 22.31 204.44 22.31 208.42 10.07 198 2.5"/><polygon class="cls-6" points="198 48.5 187.58 56.07 191.56 68.31 204.44 68.31 208.42 56.07 198 48.5"/><ellipse class="cls-6" cx="101" cy="185.5" rx="22.5" ry="12"/><text class="cls-5" transform="translate(86.67 186.67)">Proveedor c</text><rect class="cls-7" x="125.25" y="160.25" width="43.5" height="10.5" transform="translate(-42.87 51.71) rotate(-17.45)"/><path class="cls-8" d="M166,154.28l3,9.54-41,12.9-3-9.54,41-12.9m.33-.63-42,13.2,3.3,10.5,42-13.2-3.3-10.5Z"/><text class="cls-9" transform="translate(133.93 171.18) rotate(-17.45)">Repara 35%</text><rect class="cls-7" x="148.75" y="168.75" width="10.5" height="43.5" transform="translate(-70.55 288.39) rotate(-74.6)"/><path class="cls-8" d="M134.6,180l41.46,11.42L173.4,201l-41.46-11.42L134.6,180m-.35-.61L131.33,190l42.42,11.68,2.92-10.6-42.42-11.68Z"/><text class="cls-9" transform="translate(136.05 186.87) rotate(15.4)">No Repara 65%</text><line class="cls-1" x1="121.9" y1="181.05" x2="183.5" y2="163.5"/><line class="cls-2" x1="121.9" y1="181.05" x2="179.44" y2="164.66"/><path class="cls-3" d="M183.5,163.5a21,21,0,0,0-4.84,4.84l.24-3.53-2.07-2.87A21.18,21.18,0,0,0,183.5,163.5Z"/><line class="cls-1" x1="121.9" y1="189.5" x2="183.5" y2="207.05"/><line class="cls-2" x1="121.9" y1="189.5" x2="179.44" y2="205.89"/><path class="cls-3" d="M183.5,207.05a21.18,21.18,0,0,0-6.67,1.56l2.07-2.87-.24-3.53A21.17,21.17,0,0,0,183.5,207.05Z"/><polygon class="cls-6" points="198 148.5 187.58 156.07 191.56 168.31 204.44 168.31 208.42 156.07 198 148.5"/><polygon class="cls-6" points="198 194.5 187.58 202.07 191.56 214.31 204.44 214.31 208.42 202.07 198 194.5"/><ellipse class="cls-6" cx="101" cy="112.5" rx="22.5" ry="12"/><text class="cls-5" transform="translate(86.67 113.67)">Proveedor b</text><rect class="cls-7" x="125.25" y="87.25" width="43.5" height="10.5" transform="translate(-20.98 48.35) rotate(-17.45)"/><path class="cls-8" d="M166,81.28l3,9.54-41,12.9-3-9.54,41-12.9m.33-.63-42,13.2,3.3,10.5,42-13.2-3.3-10.5Z"/><text class="cls-9" transform="translate(133.93 98.18) rotate(-17.45)">Repara 50%</text><rect class="cls-7" x="148.75" y="95.75" width="10.5" height="43.5" transform="translate(-0.17 234.77) rotate(-74.6)"/><path class="cls-8" d="M134.6,107l41.46,11.42L173.4,128l-41.46-11.42L134.6,107m-.35-.61L131.33,117l42.42,11.68,2.92-10.6-42.42-11.68Z"/><text class="cls-9" transform="translate(136.05 113.87) rotate(15.4)">No Repara 50%</text><line class="cls-1" x1="121.9" y1="108.05" x2="183.5" y2="90.5"/><line class="cls-2" x1="121.9" y1="108.05" x2="179.44" y2="91.66"/><path class="cls-3" d="M183.5,90.5a21,21,0,0,0-4.84,4.84l.24-3.53-2.07-2.87A21.18,21.18,0,0,0,183.5,90.5Z"/><line class="cls-1" x1="121.9" y1="116.5" x2="183.5" y2="134.05"/><line class="cls-2" x1="121.9" y1="116.5" x2="179.44" y2="132.89"/><path class="cls-3" d="M183.5,134.05a21.18,21.18,0,0,0-6.67,1.56l2.07-2.87-.24-3.53A21.17,21.17,0,0,0,183.5,134.05Z"/><polygon class="cls-6" points="198 75.5 187.58 83.07 191.56 95.31 204.44 95.31 208.42 83.07 198 75.5"/><polygon class="cls-6" points="198 121.5 187.58 129.07 191.56 141.31 204.44 141.31 208.42 129.07 198 121.5"/></svg>