<svg id="Capa_1" data-name="Capa 1" xmlns="http://www.w3.org/2000/svg" viewBox="0 0 240 45"><defs><style>.cls-1,.cls-2,.cls-3{font-size:10.27px;}.cls-1,.cls-2,.cls-3,.cls-4,.cls-5,.cls-6,.cls-8{fill:#676868;}.cls-1,.cls-2,.cls-3,.cls-4,.cls-8{font-family:OpenSans, Open Sans;}.cls-2{letter-spacing:0em;}.cls-3{letter-spacing:0em;}.cls-4{font-size:6px;}.cls-5{font-size:16.6px;font-family:MyriadPro-Regular, Myriad Pro;}.cls-7{fill:none;stroke:#676868;stroke-linecap:round;stroke-miterlimit:10;stroke-width:0.5px;}.cls-8{font-size:9px;}</style></defs><title>u4_p3_esquema4</title><text class="cls-1" transform="translate(0.57 25.8)">umbral = - W</text><text class="cls-1" transform="translate(61.9 29.22) scale(0.58)">n0</text><text class="cls-2" transform="translate(69 25.8)"> </text><text class="cls-1" transform="translate(176.22 25.8)"><tspan xml:space="preserve">salida =   (U</tspan></text><text class="cls-1" transform="translate(231.08 29.22) scale(0.58)">n </text><text class="cls-2" transform="translate(236.31 25.8)">) </text><text class="cls-1" transform="translate(89.54 17.8)">U</text><text class="cls-1" transform="translate(97.02 21.22) scale(0.58)">n</text><text class="cls-1" transform="translate(141.39 17.8)">.x (j)</text><text class="cls-1" transform="translate(126.77 17.8)">W</text><text class="cls-3" transform="translate(136.28 21.22) scale(0.58)">nj</text><text class="cls-4" transform="translate(117.54 6.8)">k</text><text class="cls-4" transform="translate(114.93 28.8)">j=0</text><text class="cls-1" transform="translate(105.18 18.8)">=</text><text class="cls-5" transform="translate(113 19.85)">∑</text><path class="cls-6" d="M214.85,25.91c0,.86,0,1.65,0,2.43,0,1.07,0,1.07-1.07.94,0-2.08,0-4.15,0-6.22a3,3,0,0,1,2.09-2.94,2.81,2.81,0,0,1,3.68,2.54c.31,2.42-1.46,4.25-3.7,3.67A7.9,7.9,0,0,1,214.85,25.91Zm3.63-2.46a13.39,13.39,0,0,0-.68-2.26,1.46,1.46,0,0,0-2.58-.14,4.62,4.62,0,0,0,.4,4.52,1.45,1.45,0,0,0,2.52-.52A13.29,13.29,0,0,0,218.48,23.45Z"/><polyline class="cls-7" points="78 22 81.5 24.5 78 27"/><line class="cls-7" x1="71.5" y1="25.5" x2="80" y2="25.5"/><line class="cls-7" x1="71.5" y1="23.5" x2="80" y2="23.5"/><polyline class="cls-7" points="169 22 172.5 24.5 169 27"/><line class="cls-7" x1="162.5" y1="25.5" x2="171" y2="25.5"/><line class="cls-7" x1="162.5" y1="23.5" x2="171" y2="23.5"/><line class="cls-7" x1="83.5" y1="15.5" x2="83.5" y2="23.5"/><line class="cls-7" x1="83.5" y1="30.5" x2="83.5" y2="38.5"/><path class="cls-7" d="M85.5,18.5v-7a2,2,0,0,1,2-2"/><path class="cls-7" d="M85.5,33.5v7a2,2,0,0,0,2,2"/><polyline class="cls-7" points="85.5 30.5 85.5 28.5 83.5 26.5 85.5 24.5 85.5 22.5"/><text class="cls-8" transform="translate(109.09 39.67)">x(0) = 1</text></svg>